<?xml version="1.0" encoding="UTF-8"?>
<svg version="1.1" xmlns="http://www.w3.org/2000/svg" width="512" height="512">
<path d="M0 0 C29.24511602 27.06066536 50.36441514 61.60432389 59.06323242 100.66845703 C59.51182617 102.57498047 59.51182617 102.57498047 59.96948242 104.52001953 C64.58342507 126.60881581 64.56855035 153.76400905 59.06323242 175.66845703 C58.8539209 176.51214844 58.64460938 177.35583984 58.42895508 178.22509766 C50.0905278 210.96507964 34.15242499 242.47798204 9.60620117 266.12548828 C7.837024 267.84174206 7.837024 267.84174206 5.62573242 270.66845703 C2.41092005 274.43213981 -1.16454145 277.47798655 -4.93676758 280.66845703 C-5.87520508 281.49474609 -6.81364258 282.32103516 -7.78051758 283.17236328 C-20.43111427 294.24113544 -34.36848219 303.33255139 -48.93676758 311.66845703 C-50.06856445 312.32330078 -51.20036133 312.97814453 -52.36645508 313.65283203 C-70.40196123 323.82319206 -90.07536395 330.99801701 -109.93676758 336.66845703 C-110.76063965 336.9040332 -111.58451172 337.13960938 -112.43334961 337.38232422 C-139.00479731 344.82254185 -166.46446277 347.78993882 -193.99926758 347.85595703 C-195.28196533 347.8641748 -196.56466309 347.87239258 -197.88623047 347.88085938 C-203.58244447 347.87286673 -209.06757198 347.75478891 -214.69067383 346.80517578 C-233.22725271 343.95442515 -247.51095826 353.29437371 -263.20120239 362.0513916 C-277.74678719 370.12472872 -292.61861131 377.58531744 -307.49926758 385.01611328 C-309.39312452 385.96337972 -311.28692215 386.91076474 -313.18066406 387.85826111 C-317.10262533 389.81997048 -321.02528945 391.7802649 -324.94848633 393.73950195 C-329.97897818 396.2518672 -335.00763028 398.76789089 -340.03578186 401.28493595 C-343.92456436 403.23112905 -347.81429252 405.17542579 -351.70431519 407.11913872 C-353.56099807 408.04714693 -355.41738468 408.97574815 -357.27346802 409.90495491 C-359.84907554 411.19402381 -362.42594445 412.48053486 -365.00317383 413.76635742 C-366.14846558 414.34052147 -366.14846558 414.34052147 -367.31689453 414.92628479 C-375.02437439 418.7645069 -382.30927768 420.46677336 -390.77270508 417.76220703 C-397.60128925 414.56323066 -401.07791999 411.00156305 -404.74926758 404.41845703 C-407.21560353 396.63002771 -405.92830538 389.14934198 -403.83911133 381.41455078 C-403.6132283 380.5393428 -403.38734528 379.66413483 -403.15461731 378.7624054 C-402.40595572 375.8738009 -401.64015693 372.99003689 -400.87426758 370.10595703 C-400.34293355 368.06814734 -399.81268439 366.03005451 -399.28344727 363.99169922 C-397.518549 357.21268574 -395.72828572 350.44047531 -393.93676758 343.66845703 C-393.25644614 341.09248625 -392.57625605 338.51648113 -391.89624023 335.94042969 C-391.72397573 335.28801206 -391.55171122 334.63559443 -391.37422657 333.96340656 C-390.50259376 330.66223486 -389.63129945 327.36097435 -388.76060486 324.05955505 C-388.41642981 322.75478666 -388.07223737 321.45002284 -387.72802734 320.14526367 C-387.47421059 319.18305295 -387.47421059 319.18305295 -387.21526623 318.20140362 C-386.03733763 313.73882766 -384.85127189 309.27845779 -383.66308594 304.81860352 C-383.04071649 302.47169427 -382.4183994 300.12477114 -381.79614258 297.77783203 C-381.36106133 296.15449699 -381.36106133 296.15449699 -380.91719055 294.49836731 C-380.6552037 293.5074559 -380.39321686 292.51654449 -380.12329102 291.49560547 C-379.89301208 290.63143005 -379.66273315 289.76725464 -379.42547607 288.87689209 C-378.82873525 286.55724456 -378.82873525 286.55724456 -378.93676758 283.66845703 C-380.46053928 281.96375846 -380.46053928 281.96375846 -382.49926758 280.35595703 C-383.23145508 279.73978516 -383.96364258 279.12361328 -384.71801758 278.48876953 C-386.07139322 277.37842966 -387.42539868 276.26885617 -388.78051758 275.16064453 C-393.34075416 271.36735683 -397.11904907 267.19921246 -400.93676758 262.66845703 C-401.7849707 261.69650391 -402.63317383 260.72455078 -403.50708008 259.72314453 C-429.8969656 229.35778499 -449.74174527 189.29140924 -450.17504883 148.38330078 C-450.18497864 147.61355927 -450.19490845 146.84381775 -450.20513916 146.05075073 C-450.54595469 112.74001058 -445.46030361 82.17240614 -428.93676758 52.66845703 C-428.32446289 51.50958984 -427.7121582 50.35072266 -427.08129883 49.15673828 C-415.4904023 27.81514942 -398.54924363 8.18391423 -379.93676758 -7.33154297 C-379.42936035 -7.75806152 -378.92195313 -8.18458008 -378.39916992 -8.62402344 C-363.43506612 -21.13922137 -347.20763257 -31.30223963 -329.93676758 -40.33154297 C-329.21360352 -40.71020508 -328.49043945 -41.08886719 -327.74536133 -41.47900391 C-298.72616059 -56.44284043 -267.13509862 -64.81960308 -234.93676758 -69.33154297 C-234.12900879 -69.45013672 -233.32125 -69.56873047 -232.48901367 -69.69091797 C-149.89656629 -81.36328908 -61.70476773 -56.20101783 0 0 Z " fill="#198BD6" transform="translate(449.936767578125,82.33154296875)"/>
<path d="M0 0 C29.24511602 27.06066536 50.36441514 61.60432389 59.06323242 100.66845703 C59.51182617 102.57498047 59.51182617 102.57498047 59.96948242 104.52001953 C64.58342507 126.60881581 64.56855035 153.76400905 59.06323242 175.66845703 C58.8539209 176.51214844 58.64460938 177.35583984 58.42895508 178.22509766 C50.0905278 210.96507964 34.15242499 242.47798204 9.60620117 266.12548828 C7.837024 267.84174206 7.837024 267.84174206 5.62573242 270.66845703 C2.41092005 274.43213981 -1.16454145 277.47798655 -4.93676758 280.66845703 C-5.87520508 281.49474609 -6.81364258 282.32103516 -7.78051758 283.17236328 C-20.43111427 294.24113544 -34.36848219 303.33255139 -48.93676758 311.66845703 C-50.06856445 312.32330078 -51.20036133 312.97814453 -52.36645508 313.65283203 C-70.40196123 323.82319206 -90.07536395 330.99801701 -109.93676758 336.66845703 C-110.76063965 336.9040332 -111.58451172 337.13960938 -112.43334961 337.38232422 C-139.00479731 344.82254185 -166.46446277 347.78993882 -193.99926758 347.85595703 C-195.28196533 347.8641748 -196.56466309 347.87239258 -197.88623047 347.88085938 C-203.58244447 347.87286673 -209.06757198 347.75478891 -214.69067383 346.80517578 C-233.22725271 343.95442515 -247.51095826 353.29437371 -263.20120239 362.0513916 C-277.74678719 370.12472872 -292.61861131 377.58531744 -307.49926758 385.01611328 C-309.39312452 385.96337972 -311.28692215 386.91076474 -313.18066406 387.85826111 C-317.10262533 389.81997048 -321.02528945 391.7802649 -324.94848633 393.73950195 C-329.97897818 396.2518672 -335.00763028 398.76789089 -340.03578186 401.28493595 C-343.92456436 403.23112905 -347.81429252 405.17542579 -351.70431519 407.11913872 C-353.56099807 408.04714693 -355.41738468 408.97574815 -357.27346802 409.90495491 C-359.84907554 411.19402381 -362.42594445 412.48053486 -365.00317383 413.76635742 C-366.14846558 414.34052147 -366.14846558 414.34052147 -367.31689453 414.92628479 C-375.02437439 418.7645069 -382.30927768 420.46677336 -390.77270508 417.76220703 C-397.60128925 414.56323066 -401.07791999 411.00156305 -404.74926758 404.41845703 C-407.21560353 396.63002771 -405.92830538 389.14934198 -403.83911133 381.41455078 C-403.6132283 380.5393428 -403.38734528 379.66413483 -403.15461731 378.7624054 C-402.40595572 375.8738009 -401.64015693 372.99003689 -400.87426758 370.10595703 C-400.34293355 368.06814734 -399.81268439 366.03005451 -399.28344727 363.99169922 C-397.518549 357.21268574 -395.72828572 350.44047531 -393.93676758 343.66845703 C-393.25644614 341.09248625 -392.57625605 338.51648113 -391.89624023 335.94042969 C-391.72397573 335.28801206 -391.55171122 334.63559443 -391.37422657 333.96340656 C-390.50259376 330.66223486 -389.63129945 327.36097435 -388.76060486 324.05955505 C-388.41642981 322.75478666 -388.07223737 321.45002284 -387.72802734 320.14526367 C-387.47421059 319.18305295 -387.47421059 319.18305295 -387.21526623 318.20140362 C-386.03733763 313.73882766 -384.85127189 309.27845779 -383.66308594 304.81860352 C-383.04071649 302.47169427 -382.4183994 300.12477114 -381.79614258 297.77783203 C-381.36106133 296.15449699 -381.36106133 296.15449699 -380.91719055 294.49836731 C-380.6552037 293.5074559 -380.39321686 292.51654449 -380.12329102 291.49560547 C-379.89301208 290.63143005 -379.66273315 289.76725464 -379.42547607 288.87689209 C-378.82873525 286.55724456 -378.82873525 286.55724456 -378.93676758 283.66845703 C-380.46053928 281.96375846 -380.46053928 281.96375846 -382.49926758 280.35595703 C-383.23145508 279.73978516 -383.96364258 279.12361328 -384.71801758 278.48876953 C-386.07139322 277.37842966 -387.42539868 276.26885617 -388.78051758 275.16064453 C-393.34075416 271.36735683 -397.11904907 267.19921246 -400.93676758 262.66845703 C-401.7849707 261.69650391 -402.63317383 260.72455078 -403.50708008 259.72314453 C-429.8969656 229.35778499 -449.74174527 189.29140924 -450.17504883 148.38330078 C-450.18497864 147.61355927 -450.19490845 146.84381775 -450.20513916 146.05075073 C-450.54595469 112.74001058 -445.46030361 82.17240614 -428.93676758 52.66845703 C-428.32446289 51.50958984 -427.7121582 50.35072266 -427.08129883 49.15673828 C-415.4904023 27.81514942 -398.54924363 8.18391423 -379.93676758 -7.33154297 C-379.42936035 -7.75806152 -378.92195313 -8.18458008 -378.39916992 -8.62402344 C-363.43506612 -21.13922137 -347.20763257 -31.30223963 -329.93676758 -40.33154297 C-329.21360352 -40.71020508 -328.49043945 -41.08886719 -327.74536133 -41.47900391 C-298.72616059 -56.44284043 -267.13509862 -64.81960308 -234.93676758 -69.33154297 C-234.12900879 -69.45013672 -233.32125 -69.56873047 -232.48901367 -69.69091797 C-149.89656629 -81.36328908 -61.70476773 -56.20101783 0 0 Z M-263.93676758 -57.33154297 C-264.89357422 -57.1165918 -265.85038086 -56.90164062 -266.83618164 -56.68017578 C-311.53175807 -46.46448031 -353.03734358 -24.24828348 -385.93676758 7.66845703 C-386.74839355 8.44141113 -386.74839355 8.44141113 -387.57641602 9.22998047 C-420.68134449 40.78159851 -442.58528246 84.15639097 -444.15551758 130.21923828 C-444.62715828 151.84707923 -442.0297914 172.22333709 -434.93676758 192.66845703 C-434.70618652 193.36342285 -434.47560547 194.05838867 -434.23803711 194.77441406 C-423.47463577 227.15841677 -400.41940869 260.05647619 -372.93676758 280.66845703 C-372.27676758 280.66845703 -371.61676758 280.66845703 -370.93676758 280.66845703 C-371.17331055 281.61390381 -371.40985352 282.55935059 -371.65356445 283.53344727 C-373.30506335 290.13611067 -374.95517402 296.73911015 -376.59912109 303.34365845 C-377.35338262 306.37340522 -378.10866074 309.40289821 -378.86401367 312.43237305 C-379.24626966 313.96644813 -379.62810471 315.50062816 -380.00952148 317.03491211 C-383.10217087 329.47285599 -386.28218317 341.88268665 -389.76220703 354.21899414 C-390.59600827 357.17674752 -391.41040665 360.13980868 -392.22631836 363.10253906 C-392.72805392 364.91464927 -393.23471341 366.7253996 -393.74487305 368.53515625 C-394.59348318 371.55510892 -395.42268977 374.57990811 -396.24926758 377.60595703 C-396.51594238 378.54052734 -396.78261719 379.47509766 -397.05737305 380.43798828 C-399.0637663 387.88842159 -400.27411486 395.4990802 -397.87426758 402.98095703 C-395.205924 406.6822078 -393.02298118 409.50996172 -388.93676758 411.66845703 C-379.67007132 413.07448247 -372.6049422 410.93739754 -364.48120117 406.68652344 C-363.41742249 406.15638641 -362.3536438 405.62624939 -361.25762939 405.08004761 C-358.37121781 403.63521422 -355.49762093 402.16811342 -352.62828779 400.68974352 C-349.59304672 399.13288058 -346.54284878 397.60586271 -343.49429321 396.07528687 C-337.7160759 393.16861635 -331.95175501 390.23543537 -326.19196475 387.29245031 C-319.70719104 383.98078781 -313.20670678 380.7005586 -306.70500445 377.42229199 C-288.82342438 368.4034017 -270.94246104 359.37942339 -253.20874023 350.07226562 C-252.45412695 349.67692438 -251.69951366 349.28158314 -250.92203331 348.87426186 C-246.77137421 346.68466463 -242.72059219 344.37819822 -238.68676758 341.98095703 C-234.30484862 339.83155441 -231.44738575 339.49415164 -226.61254883 340.00830078 C-216.63570371 340.899007 -206.66183521 340.89074212 -196.65136719 340.90869141 C-193.40444007 340.91836712 -190.15815578 340.94948027 -186.91137695 340.98095703 C-173.00203654 341.05152395 -159.65000862 339.9714109 -145.93676758 337.66845703 C-144.04825073 337.36222412 -144.04825073 337.36222412 -142.12158203 337.04980469 C-111.74084656 331.89332731 -83.10295078 322.33119286 -55.93676758 307.66845703 C-55.29803711 307.33168945 -54.65930664 306.99492187 -54.0012207 306.64794922 C-33.93868901 296.04459545 -16.40920763 282.1892568 0.06323242 266.66845703 C1.23692383 265.57597656 1.23692383 265.57597656 2.43432617 264.46142578 C8.50914418 258.62483593 13.6472461 252.17139162 18.70776367 245.45947266 C19.97732416 243.78196982 21.26869544 242.12357226 22.56323242 240.46533203 C48.77095003 206.14495364 60.26024178 161.29044409 55.73071289 118.52929688 C54.82967506 112.16982827 53.52033602 105.92099263 52.06323242 99.66845703 C51.83893555 98.64220215 51.83893555 98.64220215 51.61010742 97.59521484 C41.99406046 53.85555677 11.70232758 14.74333001 -23.93676758 -11.33154297 C-25.06460604 -12.17758489 -26.19220939 -13.02394033 -27.31958008 -13.87060547 C-94.32059868 -63.57949173 -183.93974911 -75.67129893 -263.93676758 -57.33154297 Z " fill="#000204" transform="translate(449.936767578125,82.33154296875)"/>
</svg>
