<?xml version="1.0" encoding="UTF-8"?>
<svg version="1.1" xmlns="http://www.w3.org/2000/svg" width="1024" height="1024">
<path d="M0 0 C1.09748244 -0.00376113 2.19496488 -0.00752226 3.32570437 -0.01139736 C6.98693723 -0.02030906 10.64777711 -0.00791881 14.30899525 0.00444412 C16.96677147 0.00241881 19.62452221 -0.00079662 22.28229266 -0.00546145 C28.05219029 -0.01319663 33.82199773 -0.00985399 39.59188938 0.00086212 C48.17145837 0.01675232 56.75096482 0.01537615 65.33054408 0.01056984 C79.76499288 0.00298976 94.19940336 0.00947862 108.63384533 0.02418137 C122.92266801 0.03871876 137.2114739 0.04746819 151.50030422 0.04836655 C152.38936885 0.04842764 153.27843349 0.04848873 154.19443947 0.04855168 C157.8033526 0.0487812 161.41226573 0.04896838 165.02117886 0.04909982 C197.89486417 0.05031061 230.76852601 0.06599982 263.64220142 0.0906868 C294.69200796 0.11399939 325.74180026 0.12815634 356.79161549 0.13170242 C357.748938 0.13181394 358.70626052 0.13192545 359.69259281 0.13204035 C363.55207252 0.1324892 367.41155222 0.13293117 371.27103193 0.13337278 C373.19428378 0.13359315 375.11753563 0.13381444 377.04078748 0.13403665 C378.95925489 0.13425801 380.8777223 0.13447678 382.79618972 0.13469296 C413.31002885 0.13820411 443.82386529 0.14966314 474.33770173 0.16249929 C483.27685937 0.16622158 492.21601683 0.16948552 501.15517497 0.17174816 C519.9506316 0.17655026 538.74607971 0.18360311 557.54153039 0.19989583 C565.31673706 0.20656246 573.09193677 0.21169555 580.86714649 0.21235657 C587.30746287 0.21290621 593.74776586 0.21671987 600.18807699 0.22513248 C603.43476893 0.22927649 606.68143703 0.23126641 609.92813202 0.23001727 C613.41344036 0.22893449 616.89868652 0.23389407 620.38398743 0.24050903 C621.40792002 0.23873956 622.43185261 0.23697009 623.48681346 0.235147 C624.86595311 0.23967095 624.86595311 0.23967095 626.27295417 0.2442863 C627.47036761 0.24505916 627.47036761 0.24505916 628.69197122 0.24584763 C630.49986744 0.3719368 630.49986744 0.3719368 631.49986744 1.3719368 C633.85436595 1.8231684 636.20629029 2.23413662 638.57017994 2.6297493 C646.4015451 4.02276681 653.85729575 6.10046086 661.40221119 8.59605789 C663.39154698 9.25244022 665.38645224 9.88920567 667.38267994 10.52428055 C674.77133394 12.90983294 681.66133017 15.6983424 688.49986744 19.3719368 C689.84848625 20.04195731 691.1999285 20.70633452 692.55455494 21.3641243 C706.01327897 27.97779033 718.48693158 35.39770292 730.49986744 44.3719368 C731.07495045 44.79990555 731.65003345 45.2278743 732.24254322 45.6688118 C754.92157871 62.67008706 774.69072085 83.37865089 789.05064869 107.91490555 C789.9587275 109.45447851 790.8903186 110.98068055 791.85533619 112.48521805 C804.28079013 132.08054178 820.49986744 164.51024151 820.49986744 188.3719368 C821.15986744 188.3719368 821.81986744 188.3719368 822.49986744 188.3719368 C822.55127157 250.16090173 822.59897198 311.94986912 822.62689686 373.73884964 C822.62751812 375.10998662 822.62751812 375.10998662 822.62815192 376.50882334 C822.63713006 396.37316138 822.64544069 416.23749964 822.65306343 436.10183824 C822.65680553 445.84291281 822.66069518 455.58398732 822.66466236 465.3250618 C822.66505464 466.29443015 822.66544692 467.26379851 822.66585108 468.26254166 C822.67864146 499.69828595 822.70118012 531.13401409 822.7287591 562.56974859 C822.75704214 594.86655665 822.77552035 627.16335577 822.78161241 659.46017601 C822.78247691 664.01896766 822.78345382 668.57775929 822.78449917 673.1365509 C822.78470144 674.03381103 822.78490371 674.93107115 822.7851121 675.85552098 C822.78866109 690.31511382 822.80258559 704.77467907 822.82036354 719.23426065 C822.83800387 733.76122048 822.84477675 748.28815287 822.84037157 762.81512304 C822.83808503 771.45220079 822.84421581 780.08917833 822.86226007 788.72623804 C822.873484 794.49112386 822.87387662 800.25594383 822.86536288 806.02083413 C822.86082041 809.30862201 822.86272646 812.59618086 822.87451699 815.88395633 C822.88647283 819.42213196 822.88011796 822.9598091 822.86901093 826.4979763 C822.87689197 827.52343441 822.88477301 828.54889252 822.89289287 829.60542512 C822.85422588 835.01827746 822.3971492 838.63433786 819.49986744 843.3719368 C818.93989273 845.29296115 818.43891958 847.23222281 817.99986744 849.1844368 C816.9582841 853.57203917 815.78166041 857.81629241 814.29283619 862.07115555 C813.74272467 863.66729191 813.22671788 865.2754315 812.73814869 866.89146805 C805.44038488 890.50188038 792.55811069 916.56192886 776.49986744 935.3719368 C775.83986744 935.3719368 775.17986744 935.3719368 774.49986744 935.3719368 C774.23810719 936.11814285 773.97634693 936.86434891 773.70665455 937.63316727 C772.48439881 940.40704241 771.27281336 942.01830416 769.19127369 944.1922493 C768.20248219 945.23457718 768.20248219 945.23457718 767.1937151 946.29796219 C766.49037037 947.02362381 765.78702564 947.74928543 765.06236744 948.4969368 C764.34097584 949.25031326 763.61958424 950.00368973 762.87633228 950.77989578 C760.7587017 952.98499474 758.6304717 955.17938136 756.49986744 957.3719368 C755.94959888 957.94411942 755.39933033 958.51630203 754.83238697 959.10582352 C748.83676658 965.3380353 742.66678757 971.47711268 735.49986744 976.3719368 C734.83986744 976.3719368 734.17986744 976.3719368 733.49986744 976.3719368 C733.16986744 977.3619368 732.83986744 978.3519368 732.49986744 979.3719368 C729.98814869 981.27428055 729.98814869 981.27428055 726.81236744 983.3094368 C725.77725025 983.97846024 724.74213306 984.64748367 723.67564869 985.33678055 C722.62764088 986.00838211 721.57963306 986.67998367 720.49986744 987.3719368 C719.48279713 988.05385086 718.46572681 988.73576492 717.41783619 989.43834305 C706.18159693 996.88404376 693.87231405 1003.06147402 681.49986744 1008.3719368 C680.56142994 1008.79088211 679.62299244 1009.20982742 678.65611744 1009.64146805 C672.13344645 1012.48226291 665.59181184 1014.60286799 658.73033619 1016.4734993 C656.14893444 1017.1914224 653.64786979 1017.97807311 651.12486744 1018.8719368 C649.58538678 1019.37862746 648.04322094 1019.87716809 646.49986744 1020.3719368 C645.50032998 1020.70313381 644.50079252 1021.03433082 643.47096604 1021.3755641 C630.47995549 1025.17405013 617.69736954 1024.93083401 604.25250721 1024.87987137 C601.59569727 1024.88448536 598.93893299 1024.89067865 596.28213567 1024.89878035 C590.52642497 1024.91315563 584.77086463 1024.91283324 579.01514721 1024.90259171 C570.45609482 1024.88740368 561.89716827 1024.89522663 553.33811661 1024.90742493 C538.04873674 1024.92844564 522.75942387 1024.92667942 507.47003768 1024.91510928 C494.09168527 1024.90503533 480.71335738 1024.90242574 467.33500195 1024.90719986 C466.44656742 1024.9075054 465.5581329 1024.90781094 464.64277612 1024.90812574 C461.03609615 1024.90937115 457.4294162 1024.91064475 453.82273627 1024.91196479 C420.01310702 1024.92419155 386.20352038 1024.91312105 352.39389771 1024.89157721 C322.36954644 1024.87259088 292.34526304 1024.87429849 262.32091236 1024.89342117 C228.56742522 1024.91484725 194.81397568 1024.92332925 161.06048268 1024.91097212 C157.46141701 1024.90968929 153.86235133 1024.90843793 150.26328564 1024.90719986 C149.37714038 1024.90688355 148.49099513 1024.90656724 147.57799699 1024.90624135 C134.20741845 1024.90169506 120.83686714 1024.90700572 107.46629238 1024.91711807 C92.26283208 1024.92855951 77.05944911 1024.92568615 61.85599843 1024.9039951 C53.35137806 1024.89226106 44.84692521 1024.89146713 36.34230922 1024.90657979 C30.65732937 1024.91556647 24.97248348 1024.90993631 19.28752344 1024.89256072 C16.05136381 1024.88307126 12.8156009 1024.88195278 9.57944075 1024.89418465 C-14.43441829 1024.9779828 -14.43441829 1024.9779828 -25.50013256 1020.3719368 C-27.11611238 1019.85816956 -28.73653248 1019.35787553 -30.36341381 1018.8797493 C-35.08936094 1017.41901146 -39.79930492 1015.91153538 -44.50013256 1014.3719368 C-45.15288158 1014.15875809 -45.80563061 1013.94557938 -46.4781599 1013.7259407 C-56.1297392 1010.50704584 -65.26506296 1006.25052735 -74.43763256 1001.8719368 C-75.58747631 1001.32593826 -76.73732006 1000.77993973 -77.92200756 1000.21739578 C-84.47900037 997.03860918 -90.55686706 993.58424036 -96.50013256 989.3719368 C-97.46950756 988.7325618 -98.43888256 988.0931868 -99.43763256 987.4344368 C-100.44825756 986.7538118 -101.45888256 986.0731868 -102.50013256 985.3719368 C-103.78210522 984.51535477 -103.78210522 984.51535477 -105.08997631 983.64146805 C-106.00907787 983.01627274 -106.92817944 982.39107742 -107.87513256 981.7469368 C-108.74911694 981.15654617 -109.62310131 980.56615555 -110.52357006 979.9578743 C-111.17583569 979.43451492 -111.82810131 978.91115555 -112.50013256 978.3719368 C-112.50013256 977.7119368 -112.50013256 977.0519368 -112.50013256 976.3719368 C-113.18591381 976.15666336 -113.87169506 975.94138992 -114.57825756 975.71959305 C-118.3698318 973.97080546 -121.13490254 971.5552938 -124.25013256 968.8094368 C-124.86702953 968.27222 -125.48392651 967.7350032 -126.11951733 967.18150711 C-133.81597035 960.42109559 -140.90896298 953.21315578 -147.50013256 945.3719368 C-148.58294506 944.08803055 -148.58294506 944.08803055 -149.68763256 942.7781868 C-154.61985567 936.84618874 -159.21877929 930.78895341 -163.50013256 924.3719368 C-164.04024975 923.5675618 -164.58036694 922.7631868 -165.13685131 921.9344368 C-172.65030512 910.44533261 -179.83736176 898.46311755 -184.36732006 885.46178055 C-185.28035087 882.9714103 -186.27728135 880.62311148 -187.37903881 878.2156868 C-189.76923133 872.89717524 -191.70327436 867.45809987 -193.56263256 861.9344368 C-193.91333813 860.89343826 -194.26404369 859.85243973 -194.6253767 858.77989578 C-197.23206389 850.77727422 -198.92446046 842.89517443 -200.02747631 834.56334305 C-200.15445072 831.51899112 -200.15445072 831.51899112 -201.50013256 830.3719368 C-201.59714528 828.9525226 -201.62460641 827.52829297 -201.62433106 826.1055674 C-201.627702 824.71321519 -201.627702 824.71321519 -201.63114104 823.29273465 C-201.62851402 822.25895451 -201.62588701 821.22517437 -201.62318039 820.16006756 C-201.62433423 819.06822431 -201.62548808 817.97638107 -201.62667689 816.85145167 C-201.6293522 813.14329434 -201.62481392 809.43517926 -201.62038708 805.72702408 C-201.62082259 803.06153885 -201.62165475 800.39605646 -201.62297624 797.73057181 C-201.62505583 791.90978247 -201.62339628 786.08900333 -201.61933804 780.26821518 C-201.61332021 771.61282219 -201.61300063 762.95743568 -201.61388002 754.30204098 C-201.61519613 739.74457223 -201.61184418 725.18710801 -201.60586262 710.62964058 C-201.59995239 696.20892121 -201.59609805 681.78820372 -201.5950098 667.36748314 C-201.59494106 666.47197186 -201.59487232 665.57646058 -201.5948015 664.65381259 C-201.59446318 660.10625254 -201.59416179 655.55869248 -201.59387463 651.01113243 C-201.59177234 618.77259393 -201.58502974 586.53405789 -201.57557201 554.29552078 C-201.56639262 522.96967456 -201.55930654 491.64382902 -201.5550642 460.31798172 C-201.55493268 459.35295313 -201.55480115 458.38792453 -201.55466564 457.39365265 C-201.55334716 447.70273592 -201.55207134 438.01181919 -201.55082678 428.32090246 C-201.54829034 408.57811264 -201.54546908 388.83532287 -201.5424757 369.09253311 C-201.54233841 368.18472456 -201.54220112 367.276916 -201.54205967 366.3415981 C-201.53285378 305.6850433 -201.51700798 245.02848988 -201.50013256 184.3719368 C-200.84013256 184.3719368 -200.18013256 184.3719368 -199.50013256 184.3719368 C-199.25778881 183.27236649 -199.01544506 182.17279617 -198.76575756 181.03990555 C-197.07276058 173.51272493 -195.30359839 166.19490755 -192.50013256 158.9891243 C-191.39020852 156.08424498 -190.44568021 153.14666029 -189.50013256 150.1844368 C-188.12620147 146.01434125 -186.54149113 142.20197779 -184.48060131 138.3328743 C-183.42456614 136.22080397 -182.6262652 134.08825739 -181.81263256 131.8719368 C-176.61807817 118.59923681 -168.39864324 105.42248653 -159.50013256 94.3719368 C-158.90716381 93.54178055 -158.31419506 92.7116243 -157.70325756 91.8563118 C-134.86421024 59.88164555 -102.71131687 36.08871144 -67.50013256 19.3719368 C-66.31806225 18.79830399 -65.13599194 18.22467117 -63.91810131 17.63365555 C-50.99525719 11.55620965 -37.2051194 7.3047987 -23.50013256 3.3719368 C-22.64874986 3.12566892 -21.79736716 2.87940105 -20.92018498 2.62567051 C-13.81450453 0.69492153 -7.34405115 -0.05588121 0 0 Z " fill="#83CCB9" transform="translate(201.50013256072998,-0.3719367980957031)"/>
<path d="M0 0 C0.87439728 0.00182281 1.74879456 0.00364563 2.64968872 0.00552368 C49.04146023 0.1675463 96.08149371 10.66515464 137.75 31.3125 C138.70116699 31.77462891 139.65233398 32.23675781 140.63232422 32.71289062 C165.65707309 44.93493152 188.86051842 60.07248342 209.29296875 79.0390625 C211.47099653 81.05434416 213.68609286 83.00522436 215.9375 84.9375 C222.79136 90.92766219 228.77751455 97.3683572 234.46875 104.47265625 C235.94592633 106.31153843 237.4447954 108.13328823 238.96875 109.93359375 C263.64723109 139.174118 282.20018175 177.56486323 288.75 215.3125 C288.89663086 216.14765137 289.04326172 216.98280273 289.19433594 217.84326172 C297.02007966 264.63784328 291.40391006 318.67263301 263.4375 358.3125 C262.95748535 359.00037598 262.4774707 359.68825195 261.98291016 360.39697266 C255.51650425 369.5863029 248.40316271 378.08840863 240.75 386.3125 C240.13769531 386.97894531 239.52539062 387.64539063 238.89453125 388.33203125 C225.85972958 401.97827351 208.12721367 414.82651526 190.75 422.3125 C190.09 421.9825 189.43 421.6525 188.75 421.3125 C189.62140625 420.71824219 190.4928125 420.12398437 191.390625 419.51171875 C225.51120639 395.90646702 248.20945574 360.51715974 257.75 320.3125 C257.9977417 319.33216797 257.9977417 319.33216797 258.25048828 318.33203125 C264.67613578 292.12442655 262.48215339 259.8880843 254.75 234.3125 C254.40195312 233.05179688 254.05390625 231.79109375 253.6953125 230.4921875 C241.73934936 188.21818522 211.33696581 154.25686839 174.75 131.3125 C173.66017822 130.62728271 173.66017822 130.62728271 172.54833984 129.92822266 C160.87144004 122.65620713 148.92682982 116.93724722 136.01342773 112.19042969 C133.34130853 111.15397832 130.7292552 109.99977603 128.1015625 108.85546875 C121.58701846 106.12419039 114.97138986 104.32114286 108.125 102.625 C106.97515625 102.33044922 105.8253125 102.03589844 104.640625 101.73242188 C94.5699332 99.18033882 84.53674008 97.18588912 74.25 95.75 C73.37730469 95.62431641 72.50460937 95.49863281 71.60546875 95.36914062 C66.33303344 94.62318867 61.07014525 94.02532449 55.76367188 93.57836914 C53.75 93.3125 53.75 93.3125 51.75 92.3125 C50.19933308 92.20217194 48.64408347 92.15338903 47.08959961 92.13549805 C46.11398575 92.12284409 45.13837189 92.11019012 44.13319397 92.09715271 C43.0670134 92.0895845 42.00083282 92.0820163 40.90234375 92.07421875 C39.79527573 92.06451553 38.6882077 92.05481232 37.54759216 92.04481506 C33.92752516 92.01968261 30.30764584 92.00725373 26.6875 92 C25.46049377 91.99738159 24.23348755 91.99476318 22.96929932 91.99206543 C3.2356044 91.98754061 -15.79367876 92.95877483 -35.25 96.3125 C-36.22356445 96.47266602 -37.19712891 96.63283203 -38.20019531 96.79785156 C-97.47144905 106.72910753 -153.61001308 135.99367497 -199.11328125 174.66796875 C-201.25 176.3125 -201.25 176.3125 -204.25 177.3125 C-204.25 177.9725 -204.25 178.6325 -204.25 179.3125 C-205.9296875 181.0390625 -205.9296875 181.0390625 -208.125 182.9375 C-208.84429687 183.56914062 -209.56359375 184.20078125 -210.3046875 184.8515625 C-212.25 186.3125 -212.25 186.3125 -214.25 186.3125 C-214.25 186.9725 -214.25 187.6325 -214.25 188.3125 C-214.91 188.3125 -215.57 188.3125 -216.25 188.3125 C-216.25 188.9725 -216.25 189.6325 -216.25 190.3125 C-218.125 192.4375 -218.125 192.4375 -220.25 194.3125 C-220.91 194.3125 -221.57 194.3125 -222.25 194.3125 C-222.25 194.9725 -222.25 195.6325 -222.25 196.3125 C-222.91 196.3125 -223.57 196.3125 -224.25 196.3125 C-224.25 196.9725 -224.25 197.6325 -224.25 198.3125 C-224.91 198.3125 -225.57 198.3125 -226.25 198.3125 C-226.25 198.9725 -226.25 199.6325 -226.25 200.3125 C-226.91 200.3125 -227.57 200.3125 -228.25 200.3125 C-228.25 200.9725 -228.25 201.6325 -228.25 202.3125 C-228.91 202.3125 -229.57 202.3125 -230.25 202.3125 C-230.5903125 203.13427734 -230.5903125 203.13427734 -230.9375 203.97265625 C-232.64541328 207.01741832 -234.83864208 209.22560968 -237.25 211.75 C-243.06231658 217.94081541 -248.17766763 224.5051145 -253.25 231.3125 C-253.71929932 231.93431152 -254.18859863 232.55612305 -254.67211914 233.19677734 C-266.55058215 248.94367584 -277.3429287 265.23662354 -287.3125 282.25 C-287.8782373 283.21429932 -288.44397461 284.17859863 -289.02685547 285.17211914 C-296.37461516 297.81437023 -303.0909974 310.65173472 -309.0625 324 C-309.35958862 324.66169189 -309.65667725 325.32338379 -309.96276855 326.00512695 C-345.14627456 404.5406565 -360.96361575 488.58378624 -323.29052734 771.04663086 C-322.41120856 773.80651997 -321.73975172 776.46214502 -321.25 779.3125 C-329.07407594 778.28022135 -335.41064767 776.23600453 -342.375 772.5625 C-343.20386719 772.14484375 -344.03273438 771.7271875 -344.88671875 771.296875 C-350.6231718 768.35234198 -355.94727556 764.97224138 -361.25 761.3125 C-362.219375 760.673125 -363.18875 760.03375 -364.1875 759.375 C-365.198125 758.694375 -366.20875 758.01375 -367.25 757.3125 C-368.53197266 756.45591797 -368.53197266 756.45591797 -369.83984375 755.58203125 C-370.75894531 754.95683594 -371.67804688 754.33164062 -372.625 753.6875 C-373.49898438 753.09710937 -374.37296875 752.50671875 -375.2734375 751.8984375 C-375.92570312 751.37507812 -376.57796875 750.85171875 -377.25 750.3125 C-377.25 749.6525 -377.25 748.9925 -377.25 748.3125 C-377.93578125 748.09722656 -378.6215625 747.88195312 -379.328125 747.66015625 C-383.11969924 745.91136867 -385.88476998 743.495857 -389 740.75 C-389.61689697 740.2127832 -390.23379395 739.67556641 -390.86938477 739.12207031 C-398.56583779 732.3616588 -405.65883042 725.15371898 -412.25 717.3125 C-413.3328125 716.02859375 -413.3328125 716.02859375 -414.4375 714.71875 C-419.36972311 708.78675194 -423.96864673 702.72951661 -428.25 696.3125 C-428.79011719 695.508125 -429.33023438 694.70375 -429.88671875 693.875 C-437.40017256 682.38589581 -444.5872292 670.40368075 -449.1171875 657.40234375 C-450.03021831 654.9119735 -451.02714879 652.56367468 -452.12890625 650.15625 C-454.51909877 644.83773844 -456.4531418 639.39866307 -458.3125 633.875 C-458.66320557 632.83400146 -459.01391113 631.79300293 -459.37524414 630.72045898 C-461.98193133 622.71783743 -463.6743279 614.83573763 -464.77734375 606.50390625 C-464.90431816 603.45955433 -464.90431816 603.45955433 -466.25 602.3125 C-466.37278296 600.46392586 -466.42525646 598.61066234 -466.45100403 596.75819397 C-466.46972061 595.55012589 -466.48843719 594.3420578 -466.50772095 593.09738159 C-466.52332632 591.74469217 -466.53873079 590.39200041 -466.55395508 589.03930664 C-466.5733124 587.62276355 -466.59293654 586.20622408 -466.61280823 584.78968811 C-466.78871146 571.64915989 -466.88049425 558.50741407 -466.95387745 545.36596012 C-467.00406334 536.5668399 -467.07627862 527.76922731 -467.21020508 518.97094727 C-467.81249922 478.58572395 -467.33253638 441.44626677 -454.95290756 402.55318642 C-453.87692241 399.1232257 -452.89950571 395.66879279 -451.91772461 392.21069336 C-450.2023862 386.18135801 -448.26165419 380.24841842 -446.25 374.3125 C-445.46343333 371.93102536 -444.67698096 369.54951297 -443.890625 367.16796875 C-422.09349333 301.90479216 -388.6504914 239.23070767 -344.73828125 186.11669922 C-342.70585581 183.65285014 -340.69868914 181.16869529 -338.6875 178.6875 C-331.13618932 169.48737102 -323.59810616 160.32542953 -314.9921875 152.08203125 C-313.05797828 150.22864888 -313.05797828 150.22864888 -311.25 147.3125 C-310.59 147.3125 -309.93 147.3125 -309.25 147.3125 C-309.023125 146.735 -308.79625 146.1575 -308.5625 145.5625 C-306.90238361 142.71658619 -304.85812043 141.31408079 -302.25 139.3125 C-300.56772489 137.66158934 -298.903435 135.99229411 -297.25 134.3125 C-285.13812807 122.0398978 -285.13812807 122.0398978 -279.23828125 117.01953125 C-276.88428327 114.9985153 -274.60258708 112.90559035 -272.3125 110.8125 C-267.78921874 106.73604744 -263.10127049 102.98747194 -258.25 99.3125 C-256.71610488 98.13258068 -255.18226917 96.95258294 -253.6496582 95.77099609 C-251.9816055 94.48582777 -250.31121253 93.20374592 -248.640625 91.921875 C-246.41469001 90.21217292 -244.19644543 88.49322272 -241.984375 86.765625 C-228.42958109 76.20392586 -214.31970018 66.59474303 -199.25 58.3125 C-198.4161377 57.85182129 -197.58227539 57.39114258 -196.72314453 56.91650391 C-185.02407292 50.45995115 -173.31438827 44.06393679 -161.25 38.3125 C-160.4362793 37.92352539 -159.62255859 37.53455078 -158.78417969 37.13378906 C-122.41781469 19.87357655 -82.07220297 6.59545109 -41.81542969 3.04638672 C-36.95439795 2.6142269 -32.16275784 1.99934096 -27.3359375 1.2734375 C-18.22257398 0.04160863 -9.18487057 -0.03985683 0 0 Z " fill="#4D82B5" transform="translate(466.25,227.6875)"/>
<path d="M0 0 C0.33 0 0.66 0 1 0 C1.21062121 20.65393432 1.36913449 41.30769055 1.46630955 61.96248245 C1.51263737 71.55380491 1.57575185 81.14445853 1.67895508 90.73535156 C1.76890706 99.0987942 1.82678192 107.46175227 1.84679645 115.82566524 C1.85848907 120.25101794 1.88579364 124.67498495 1.95157051 129.09989166 C2.01310004 133.27326432 2.03141839 137.44469368 2.01796913 141.61847687 C2.02042588 143.14224854 2.03807184 144.66609165 2.07284927 146.18946838 C2.32252066 157.69988145 -0.36881405 163.63268897 -8 172 C-8.97957588 173.24869468 -9.94988976 174.5049191 -10.8984375 175.77734375 C-11.7218655 176.83236593 -12.54735979 177.88577895 -13.375 178.9375 C-13.83140869 179.51757812 -14.28781738 180.09765625 -14.75805664 180.6953125 C-19.2407144 186.35794028 -23.88763297 191.87261819 -28.59082031 197.35253906 C-30.02402539 199.0280879 -31.44649738 200.71226974 -32.8671875 202.3984375 C-39.29112801 209.99660062 -45.95614047 217.32340533 -52.78125 224.5625 C-55.30652711 227.24487961 -57.76134555 229.97725206 -60.1875 232.75 C-64.79695753 237.90737418 -69.67998472 242.7895913 -74.5625 247.6875 C-75.36647217 248.49606445 -76.17044434 249.30462891 -76.9987793 250.13769531 C-81.26965767 254.39762159 -85.61556395 258.50025165 -90.1887207 262.43383789 C-92.7912609 264.68418097 -95.29492037 267.0299538 -97.8125 269.375 C-102.46251131 273.67071772 -107.24757808 277.73996318 -112.18359375 281.70703125 C-114.63948264 283.70648586 -117.0402026 285.75665147 -119.43164062 287.83227539 C-127.52267009 294.82376116 -136.09348725 301.11719687 -144.75634766 307.37792969 C-146.75250493 308.82107103 -148.74240615 310.27230639 -150.73046875 311.7265625 C-205.59746142 351.65533262 -268.54054089 380.65264899 -335.3125 393.25 C-336.09778076 393.40114258 -336.88306152 393.55228516 -337.69213867 393.70800781 C-354.44368276 396.70122513 -371.33126115 397.40860579 -388.3125 397.375 C-389.30869354 397.37478851 -390.30488708 397.37457703 -391.33126831 397.37435913 C-416.02838013 397.32237351 -440.18981683 394.90542837 -464 388 C-464.83047852 387.75942871 -465.66095703 387.51885742 -466.51660156 387.27099609 C-505.63845791 375.63916309 -540.65603867 355.22146361 -570 327 C-570.49129395 326.53062012 -570.98258789 326.06124023 -571.48876953 325.57763672 C-578.20577066 319.13157345 -584.35593718 312.40176675 -590 305 C-590.49258301 304.35675781 -590.98516602 303.71351563 -591.49267578 303.05078125 C-626.89282103 256.43933354 -644.18046441 196.63192853 -636.92041016 138.22631836 C-636.63579523 136.14679317 -636.32569163 134.07347222 -636 132 C-635.83129395 130.92105469 -635.83129395 130.92105469 -635.65917969 129.8203125 C-634.56222212 123.02703256 -633.45559411 116.33657382 -630.7421875 109.97265625 C-629.78302972 107.42331584 -629.2286461 104.84286459 -628.625 102.1875 C-627.13101546 96.03443995 -624.80581119 90.6573693 -622 85 C-621.484375 83.91976562 -620.96875 82.83953125 -620.4375 81.7265625 C-607.36826581 54.80151985 -589.01664529 29.87582391 -559.80078125 19.25390625 C-542.98877729 13.52107731 -527.33413843 13.64626813 -510.88671875 20.25 C-499.45299483 25.94260371 -490.46386917 35.78057637 -485.97265625 47.734375 C-482.21494243 60.54869862 -483.35468993 73.32820785 -487 86 C-487.63164063 86.01417969 -488.26328125 86.02835938 -488.9140625 86.04296875 C-506.71301036 86.99190401 -522.09033963 96.06850487 -534 109 C-549.30670158 128.67837056 -555.19431703 152.91567482 -552.74951172 177.52099609 C-551.18672352 189.9967319 -548.5739852 201.67379171 -543 213 C-542.70351563 213.60763184 -542.40703125 214.21526367 -542.1015625 214.84130859 C-537.04070321 225.11259715 -531.44847383 234.29792989 -524 243 C-523.31381592 243.81162598 -523.31381592 243.81162598 -522.61376953 244.63964844 C-491.57431556 280.97488292 -443.07082477 297.7403546 -397 304 C-396.04898155 304.12943748 -396.04898155 304.12943748 -395.07875061 304.26148987 C-388.98137378 305.0220438 -382.9563532 305.16107242 -376.81640625 305.16796875 C-375.76202866 305.17129715 -374.70765106 305.17462555 -373.62132263 305.17805481 C-371.39672274 305.18309488 -369.17211536 305.18546404 -366.94750977 305.18530273 C-363.60354576 305.18747336 -360.25992075 305.20561692 -356.91601562 305.22460938 C-344.45293298 305.25767348 -332.34324094 304.71615152 -320 303 C-318.93418701 302.86988525 -317.86837402 302.73977051 -316.77026367 302.60571289 C-260.32066369 295.62240385 -204.85619148 268.62530167 -161 233 C-160.10023438 232.27941406 -159.20046875 231.55882812 -158.2734375 230.81640625 C-155.49373567 228.56941385 -152.74539509 226.28879207 -150 224 C-149.49300568 223.57874344 -148.98601135 223.15748688 -148.46365356 222.72346497 C-139.83548341 215.53015552 -131.69175007 207.9838459 -123.79272461 199.99853516 C-122.04408776 198.2313929 -120.2873301 196.47263385 -118.52929688 194.71484375 C-112.8120492 188.98019044 -107.19994801 183.21484085 -102 177 C-101.47817139 176.38495605 -100.95634277 175.76991211 -100.41870117 175.13623047 C-79.8182677 150.73461995 -60.75168282 124.82747389 -45 97 C-44.60941406 96.31212402 -44.21882812 95.62424805 -43.81640625 94.91552734 C-41.24019512 90.36201399 -38.70708393 85.78639084 -36.20117188 81.19384766 C-35.09800234 79.17899371 -33.98010982 77.1730823 -32.859375 75.16796875 C-20.94725074 53.57222593 -11.44749184 30.57183333 -2.92285156 7.46240234 C-1.98481392 4.95947967 -1.00146186 2.47814675 0 0 Z " fill="#4879B5" transform="translate(1023,478)"/>
<path d="M0 0 C1.3590596 0.00223572 1.3590596 0.00223572 2.74557495 0.0045166 C18.84706401 0.05176141 34.60330162 1.06752644 50.5625 3.3125 C51.64225098 3.45703613 52.72200195 3.60157227 53.83447266 3.75048828 C115.72794427 12.15370657 176.92802964 38.91480149 223.20703125 81.17578125 C225.23243971 83.01309208 227.29081255 84.79290688 229.375 86.5625 C238.05984166 94.15734129 246.17399871 102.40792313 253.31005859 111.47583008 C255.44349755 114.16263121 257.63123387 116.79410711 259.83203125 119.42578125 C264.41389166 125.0217601 268.518033 130.84170168 272.5 136.875 C273.1923877 137.92147705 273.88477539 138.9679541 274.59814453 140.04614258 C310.5923241 195.00296608 325.66637509 257.6259711 320.3125 322.9375 C320.25809753 323.63885071 320.20369507 324.34020142 320.14764404 325.06280518 C319.31568492 335.48726825 317.34672394 345.24051908 314.5625 355.3125 C314.30742676 356.27575195 314.05235352 357.23900391 313.78955078 358.23144531 C302.59049991 400.2938334 302.59049991 400.2938334 293.5625 406.3125 C293.97847563 404.91646057 294.39534683 403.52068801 294.8125 402.125 C295.08707031 401.20332031 295.36164062 400.28164063 295.64453125 399.33203125 C296.24872056 397.34463409 296.87069686 395.36254342 297.51171875 393.38671875 C314.63427379 340.12406729 308.18130206 280.78659868 283.06640625 231.02734375 C275.13759159 215.88115091 266.23175221 201.66847802 255.5625 188.3125 C254.79421875 187.3328125 254.0259375 186.353125 253.234375 185.34375 C239.61072705 168.2896871 224.03049567 153.37411006 206.5625 140.3125 C206.00626953 139.89403809 205.45003906 139.47557617 204.87695312 139.04443359 C151.82541051 99.3795842 85.57657451 77.12105365 19.39135742 77.12719727 C16.76529671 77.12501272 14.13965864 77.10679675 11.51367188 77.08789062 C1.31479205 77.05420262 -8.34481275 77.76789456 -18.4375 79.3125 C-21.72520529 79.67398763 -25.0179274 79.959067 -28.3125 80.25 C-86.63488821 85.88028302 -145.24875603 110.3513209 -194.125 141.9375 C-197.02356341 143.79825609 -199.90931152 145.60943011 -202.9375 147.25 C-208.08009579 150.13278529 -212.72014019 153.79467964 -217.4375 157.3125 C-218.44683594 158.06273437 -219.45617187 158.81296875 -220.49609375 159.5859375 C-226.53183793 164.0916013 -232.53771166 168.62998726 -238.4375 173.3125 C-239.00984375 173.76608887 -239.5821875 174.21967773 -240.171875 174.68701172 C-248.6039998 181.39029385 -256.75546751 188.27894177 -264.6015625 195.66015625 C-266.96512929 197.87070977 -269.35964627 200.01516988 -271.8125 202.125 C-275.5366448 205.34736529 -278.99905532 208.78957265 -282.4375 212.3125 C-284.82380153 214.75561823 -287.09785355 217.05329613 -289.8125 219.125 C-292.7320357 221.55794641 -295.03252768 224.23161256 -297.4921875 227.1171875 C-299.5098892 229.39419223 -301.63135619 231.50465463 -303.8125 233.625 C-307.85929255 237.62402266 -311.43887979 241.86224183 -314.9921875 246.30078125 C-317.22569295 249.05163221 -319.51305624 251.73790026 -321.83520508 254.41333008 C-346.54661743 282.88611168 -367.59645461 315.149222 -385.4375 348.3125 C-385.89882324 349.16666504 -386.36014648 350.02083008 -386.83544922 350.90087891 C-402.577837 380.17329723 -416.84259645 410.62629315 -426.81982422 442.38037109 C-427.78419822 445.39699397 -428.83964311 448.38211948 -429.875 451.375 C-437.98634679 475.91439092 -443.57161993 501.16819653 -449.4375 526.3125 C-449.7675 526.3125 -450.0975 526.3125 -450.4375 526.3125 C-450.68880945 493.82770199 -450.88329606 461.34318571 -450.99921862 428.85763648 C-451.01297527 425.01649889 -451.02721293 421.17536323 -451.04174805 417.33422852 C-451.04463346 416.56957518 -451.04751888 415.80492184 -451.05049173 415.01709718 C-451.09826757 402.65969804 -451.18494748 390.30286573 -451.28618076 377.94580209 C-451.38929735 365.25233575 -451.45019879 352.55916485 -451.47247344 339.8652969 C-451.48751623 332.04140546 -451.53490089 324.21911644 -451.62458114 316.3957187 C-451.689981 310.38158708 -451.69644567 304.3688136 -451.68168449 298.35428619 C-451.68469632 295.89811188 -451.70638617 293.44187362 -451.74876022 290.986063 C-452.00810181 275.17234046 -450.39192687 265.93862095 -439.4375 254.3125 C-438.13721812 252.58762086 -436.85691341 250.84702881 -435.6171875 249.078125 C-429.43778785 240.62296168 -423.17081274 232.33625788 -416.4375 224.3125 C-415.01969009 222.5634261 -413.60306182 220.81339382 -412.1875 219.0625 C-398.17888811 201.97053679 -383.1589548 185.95264076 -367.5625 170.3125 C-367.02234253 169.7696637 -366.48218506 169.22682739 -365.92565918 168.6675415 C-359.94204993 162.66142381 -353.88597007 156.82321458 -347.4375 151.3125 C-345.66179779 149.69282183 -343.89041693 148.06838282 -342.125 146.4375 C-337.69118689 142.39847847 -333.15695416 138.53743122 -328.48828125 134.7734375 C-326.26461326 132.97969764 -324.05551522 131.17377617 -321.85546875 129.3515625 C-311.66583249 120.94033054 -301.15523685 113.03679332 -290.4375 105.3125 C-289.70354004 104.78237305 -288.96958008 104.25224609 -288.21337891 103.70605469 C-262.54841271 85.2207889 -235.44422685 68.99043611 -207.4375 54.3125 C-206.55094727 53.84392578 -205.66439453 53.37535156 -204.75097656 52.89257812 C-153.46204911 25.91854317 -97.90301123 9.08822489 -40.4375 2.3125 C-39.69815216 2.22422943 -38.95880432 2.13595886 -38.197052 2.04501343 C-25.44110915 0.55054335 -12.83932723 -0.05290829 0 0 Z " fill="#63C3AB" transform="translate(450.4375,151.6875)"/>
<path d="M0 0 C15.86416617 -0.25750045 31.727764 -0.45119628 47.59350395 -0.56993389 C54.96116054 -0.62654385 62.3275153 -0.70365032 69.69433594 -0.82983398 C76.11892034 -0.93982552 82.54256173 -1.01052088 88.96806157 -1.03497344 C92.36776309 -1.04925904 95.76476821 -1.08256921 99.16360092 -1.16303062 C121.52548856 -1.63420444 121.52548856 -1.63420444 126.94439697 2.45175171 C129.56734025 4.9774965 131.44297429 7.69338182 133 11 C133 11.66 133 12.32 133 13 C133.66 13 134.32 13 135 13 C136.48443685 14.73593235 137.88462191 16.5439466 139.25 18.375 C140.15398004 19.57885239 141.05898502 20.78193562 141.96484375 21.984375 C142.69743408 22.95987305 142.69743408 22.95987305 143.44482422 23.95507812 C145.04419976 26.05811887 146.67455235 28.13310601 148.31640625 30.203125 C156.20584815 40.16451906 163.56628427 50.37834221 170.62353516 60.94482422 C171.79320354 62.69123579 172.97889737 64.42689725 174.16796875 66.16015625 C183.97593534 80.53843304 192.641339 95.74212674 201 111 C201.36689941 111.66531738 201.73379883 112.33063477 202.11181641 113.01611328 C212.7102376 132.3064343 221.04576057 152.50063822 229 173 C229.35980957 173.91475098 229.71961914 174.82950195 230.09033203 175.77197266 C235.97702372 190.81389523 240.21374228 206.16035845 244.18066406 221.79296875 C244.82547115 224.31686205 245.48935833 226.83210029 246.1796875 229.34375 C253.25016356 255.75577628 256.52562457 282.83722916 259 310 C259.10530029 311.093125 259.21060059 312.18625 259.3190918 313.3125 C260.15338487 322.74557371 260.19884202 332.16243644 260.1875 341.625 C260.18709213 342.90907242 260.18709213 342.90907242 260.18667603 344.21908569 C260.16486738 359.22849175 259.51856903 374.05931471 258 389 C257.89284668 390.09054687 257.78569336 391.18109375 257.67529297 392.3046875 C248.03044882 488.66889457 209.18349663 583.50814322 122.5 672.6875 C120.67070546 674.13013607 118.83717383 675.56741154 117 677 C115.9333603 677.86660302 114.86832866 678.73518803 113.8046875 679.60546875 C92.33469897 697.04459803 68.13641116 710.02149492 42 719 C40.79988281 719.41894531 39.59976563 719.83789062 38.36328125 720.26953125 C-5.10599412 734.54541873 -56.2029927 730.58217367 -97 710 C-110.13531618 702.69524031 -125.90023949 691.8384598 -131 677 C-131.875 673.125 -131.875 673.125 -132 670 C-128.22755833 666.22755833 -122.53192948 666.86257335 -117.44140625 666.75390625 C-115.55168091 666.70641235 -115.55168091 666.70641235 -113.6237793 666.65795898 C-112.96243988 666.64256073 -112.30110046 666.62716248 -111.61972046 666.61129761 C-101.76667706 666.3775818 -91.99123745 666.01044324 -82.1875 664.9375 C-72.01325577 663.8546704 -61.90310947 663.95198444 -51.68762207 664.03900146 C-29.19232861 664.31887646 -29.19232861 664.31887646 -7 661 C-6.27780273 660.83371094 -5.55560547 660.66742187 -4.81152344 660.49609375 C21.83100129 654.09335082 45.60127551 639.44918822 66 621.5 C69 619 69 619 71 619 C71.20625 618.443125 71.4125 617.88625 71.625 617.3125 C73.51040088 614.14159851 76.15359359 612.31270521 79 610 C79.66 609.01 80.32 608.02 81 607 C81.66 607 82.32 607 83 607 C83 606.34 83 605.68 83 605 C83.66 605 84.32 605 85 605 C85.37898438 604.13375 85.37898438 604.13375 85.765625 603.25 C87.14968796 600.72715107 88.73787462 599.05751166 90.75 597 C101.89385104 584.83163363 110.97946184 570.38695197 119 556 C119.4017041 555.28021973 119.8034082 554.56043945 120.21728516 553.81884766 C130.822099 534.63403459 138.40026629 514.54574453 145.88037109 493.9777832 C146.85028748 491.39817785 147.90223172 488.88164208 148.9921875 486.3515625 C152.100567 478.64485566 153.88782039 470.48801117 155.875 462.4375 C156.09310333 461.5602829 156.31120667 460.6830658 156.53591919 459.77926636 C165.53649326 423.43005023 171.23495406 386.69835475 171.1875 349.1875 C171.18759064 348.06737518 171.18759064 348.06737518 171.18768311 346.92462158 C171.1644667 326.53467587 169.80837933 306.20160865 167 286 C166.83564453 284.7944043 166.83564453 284.7944043 166.66796875 283.56445312 C165.39962568 274.35851248 164.03027677 265.23576157 161.79296875 256.20703125 C161.23815012 253.96315886 160.723106 251.70924795 160.23828125 249.44921875 C153.825658 219.69223127 143.08010661 190.45780148 130 163 C129.51047852 161.97181152 129.02095703 160.94362305 128.51660156 159.88427734 C114.8831085 131.4804877 98.69498079 104.64393902 79 80 C78.50532227 79.37528809 78.01064453 78.75057617 77.50097656 78.10693359 C70.4466155 69.20975636 63.12090377 60.69046981 55.33300781 52.43017578 C53.3887763 50.34422189 51.51027831 48.20169956 49.625 46.0625 C41.91081825 37.46308428 33.7285524 29.08902423 24.90234375 21.625 C22.65146391 19.70227718 20.48930088 17.69363969 18.3125 15.6875 C13.77641964 11.57601375 9.01699467 7.84462256 4.11450195 4.1862793 C2.72709732 3.14504726 1.36117937 2.07528903 0 1 C0 0.67 0 0.34 0 0 Z " fill="#62C3AC" transform="translate(676,0)"/>
<path d="M0 0 C1.22589844 0.36351562 2.45179688 0.72703125 3.71484375 1.1015625 C18.93504651 5.72194716 32.32018657 12.90353142 40.9375 26.8125 C48.84102515 41.85959596 50.9638988 59.16872721 46.55883789 75.75463867 C44.23346591 83.22232636 40.70091549 89.7559579 36 96 C35.48953125 96.71542969 34.9790625 97.43085937 34.453125 98.16796875 C28.56112662 105.70797658 19.22921385 111.56661438 10 114 C6.19524581 114.01998995 2.60690725 113.20230242 -1 112 C-1.02736707 110.60427948 -1.04655989 109.20839779 -1.0625 107.8125 C-1.07410156 107.03519531 -1.08570313 106.25789062 -1.09765625 105.45703125 C-1 103 -1 103 -0.51171875 100.671875 C1.85027404 88.33902714 0.2862229 75.02475797 -6.1875 64.25 C-14.20559819 52.6479286 -24.16112726 45.34967543 -38.0625 42.0625 C-57.26541418 38.64629096 -76.53588121 43.41332947 -92.6875 54.1875 C-108.20378276 65.5825669 -119.87385022 79.03634659 -129 96 C-129.68689332 97.24382481 -130.37442382 98.4872979 -131.0625 99.73046875 C-137.13806455 110.7960784 -141.27726265 121.42878039 -144.33862305 133.66503906 C-144.54011963 134.46780273 -144.74161621 135.27056641 -144.94921875 136.09765625 C-145.12799561 136.82476807 -145.30677246 137.55187988 -145.4909668 138.30102539 C-146 140 -146 140 -147 141 C-160.23755134 198.41315125 -148.71956837 260.31684061 -117.9765625 310.2890625 C-116.04588228 313.24231644 -114.05336191 316.13086447 -112 319 C-111.31421875 319.96035156 -110.6284375 320.92070313 -109.921875 321.91015625 C-97.35285382 339.06822653 -82.9266096 355.05068118 -66 368 C-65.49017578 368.4021875 -64.98035156 368.804375 -64.45507812 369.21875 C-46.44843832 383.39924905 -26.12140339 394.24560105 -5 403 C-3.83670166 403.48823242 -3.83670166 403.48823242 -2.64990234 403.98632812 C42.33066077 422.58023512 96.18438993 426.45746339 144 418 C145.02786621 417.82839355 146.05573242 417.65678711 147.11474609 417.47998047 C181.86281365 411.62144685 215.32972781 401.01621804 247.30517578 386.24462891 C249.71649519 385.13093926 252.13538691 384.03671461 254.55859375 382.94921875 C298.9936364 362.7956767 339.27027333 334.04794889 376.25292969 302.48828125 C378.06331799 300.94606114 379.87905158 299.41029764 381.6953125 297.875 C389.7556527 291.04624577 389.7556527 291.04624577 397.32006836 283.67895508 C399.01332368 281.98668407 400.77477617 280.44179053 402.59765625 278.890625 C407.46546316 274.65748294 412.01352226 270.13326056 416.5625 265.5625 C417.37396484 264.75490234 418.18542969 263.94730469 419.02148438 263.11523438 C423.30309682 258.82671053 427.42482077 254.46398749 431.37573242 249.86938477 C433.95849576 246.89685825 436.67339536 244.05157299 439.375 241.1875 C444.02189776 236.22161297 448.44295448 231.14749092 452.6953125 225.8359375 C455.37542568 222.53803552 458.15297358 219.33460473 460.9375 216.125 C468.99241967 206.79496244 476.37574456 197.00322547 483.50390625 186.94921875 C483.99761719 186.30597656 484.49132812 185.66273438 485 185 C485.33 185 485.66 185 486 185 C486.23400833 200.75110939 486.41013901 216.50174663 486.51812172 232.2541647 C486.56960217 239.56904275 486.63973358 246.88283842 486.75439453 254.19702148 C486.85433236 260.57508292 486.91864307 266.95236034 486.94088495 273.33118302 C486.95388025 276.7066189 486.98422324 280.07981275 487.05730057 283.4545269 C487.13009675 287.23071097 487.13988358 291.00227795 487.13525391 294.77905273 C487.17120667 295.88748535 487.20715942 296.99591797 487.24420166 298.13793945 C487.18115804 302.90244383 486.94124397 305.84371379 483.87321091 309.61268806 C481.34239678 311.91803733 478.75794824 313.97450744 476 316 C474.32937087 317.34927515 472.66213293 318.70277236 471 320.0625 C469.33394369 321.37577468 467.66729061 322.6882927 466 324 C464.47872535 325.22862043 462.95790253 326.45780049 461.4375 327.6875 C437.25598913 347.01010916 412.21488683 365.41687267 385.828125 381.62109375 C383.20428567 383.23715856 380.61660479 384.8968777 378.046875 386.59765625 C359.14630339 399.1065549 339.16259969 409.68765432 319 420 C318.26201172 420.37995117 317.52402344 420.75990234 316.76367188 421.15136719 C274.27185525 443.00142455 228.41748319 459.89890663 181.58300781 469.47094727 C179.9346088 469.80857304 178.28788653 470.15456669 176.64355469 470.51147461 C169.7006504 471.98414654 162.69733393 472.91596254 155.66015625 473.80493164 C153.63478875 474.06126114 151.610354 474.32416695 149.5859375 474.58789062 C145.72709734 475.08605845 141.86477265 475.54995143 138 476 C137.06760498 476.11037598 136.13520996 476.22075195 135.17456055 476.33447266 C124.35206895 477.42626268 113.42795152 477.24213278 102.5625 477.25 C101.47307098 477.25133942 100.38364197 477.25267883 99.26119995 477.25405884 C81.97265524 477.24945301 65.12449694 476.5232386 48 474 C47.1145752 473.8772168 46.22915039 473.75443359 45.31689453 473.62792969 C34.95891813 472.17761322 25.0671637 469.84389265 15 467 C12.54183629 466.3743332 10.08350101 465.74934009 7.625 465.125 C-13.10957646 459.56416764 -33.0574216 451.04018544 -52 441 C-52.64501465 440.65888184 -53.2900293 440.31776367 -53.95458984 439.96630859 C-71.25628931 430.72812188 -87.09614072 419.73398185 -102 407 C-102.8765625 406.25492188 -103.753125 405.50984375 -104.65625 404.7421875 C-116.36962381 394.47346313 -127.49736534 383.35162191 -137 371 C-137.77214844 370.04480469 -138.54429687 369.08960938 -139.33984375 368.10546875 C-156.71278345 346.28637387 -169.9816796 321.34741451 -179 295 C-179.39574219 293.84628906 -179.79148437 292.69257812 -180.19921875 291.50390625 C-181.21464478 288.35327607 -182.12527549 285.19255991 -183 282 C-183.19158691 281.32308105 -183.38317383 280.64616211 -183.58056641 279.94873047 C-189.99621634 257.07141289 -193.2041973 233.30758512 -193.1875 209.5625 C-193.18722809 208.90625641 -193.18695618 208.25001282 -193.18667603 207.57388306 C-193.15417319 190.42981007 -191.43159408 173.78774039 -188 157 C-187.86368164 156.32437012 -187.72736328 155.64874023 -187.58691406 154.95263672 C-179.63606886 116.40113669 -161.44339586 77.95981459 -133.67626953 49.71142578 C-131.83732214 47.83391031 -130.02701828 45.93069687 -128.21484375 44.02734375 C-108.19665709 23.23913252 -83.15114655 7.21310516 -55 0 C-53.86175781 -0.2990625 -52.72351563 -0.598125 -51.55078125 -0.90625 C-35.15384715 -4.60712541 -16.07177832 -5.35012594 0 0 Z " fill="#ABDCCB" transform="translate(538,453)"/>
<path d="M0 0 C19.67192712 -0.3046565 39.34337092 -0.53339719 59.01717377 -0.67355824 C68.15369362 -0.74038923 77.28874176 -0.83137722 86.42431641 -0.98071289 C94.39373561 -1.11092297 102.36208846 -1.1943038 110.33254194 -1.22315043 C114.54748665 -1.23999613 118.75938289 -1.27912408 122.9733429 -1.37449074 C153.3677049 -2.03568423 153.3677049 -2.03568423 162.75195312 6.1809082 C164.42504549 7.82323308 165.98115947 9.49963181 167.49830627 11.28647804 C169.62247839 13.71028491 171.9974627 15.80861876 174.40154266 17.94935894 C175.94093417 19.32232004 177.44372772 20.72615414 178.9375 22.1484375 C181.19774397 24.28055227 183.51846044 26.32585277 185.87109375 28.35546875 C190.11136 32.04642549 194.10012512 35.95206571 198.0625 39.9375 C198.73087891 40.60201172 199.39925781 41.26652344 200.08789062 41.95117188 C204.02939078 45.90033286 207.78128554 49.96024507 211.42553711 54.18481445 C213.47788901 56.55095438 215.61402781 58.83435396 217.75 61.125 C223.00389508 66.89476091 227.82992589 72.93773333 232.5703125 79.13330078 C233.52473926 80.37946659 234.48309267 81.62263464 235.4453125 82.86279297 C243.95301015 93.8301024 251.64833971 105.22940532 259 117 C259.52174805 117.83176758 260.04349609 118.66353516 260.58105469 119.52050781 C286.98668467 161.95048896 308.24917301 211.12417164 316.39453125 260.59765625 C316.83776718 263.08835621 317.34784479 265.45381175 317.98046875 267.89453125 C321.74772556 282.581373 322.84664988 297.9314807 324 313 C324.05929687 313.71317383 324.11859375 314.42634766 324.1796875 315.16113281 C328.69510933 370.28690762 321.21642091 426.25208144 305 479 C304.34 479 303.68 479 303 479 C303.38304175 472.76566525 304.19778203 466.74845543 305.4375 460.625 C307.24738999 451.57004218 308.04427037 442.45976766 308.8046875 433.26611328 C308.96076991 431.45516712 309.14719118 429.64684468 309.34375 427.83984375 C310.49855269 416.94941282 310.15823967 405.93368784 310 395 C309.98114746 393.52877686 309.98114746 393.52877686 309.96191406 392.02783203 C309.68319079 375.14232134 307.6009991 358.6715499 305 342 C304.84660156 340.98019043 304.69320313 339.96038086 304.53515625 338.90966797 C300.89763821 314.89963464 294.5019951 291.72861029 286 269 C285.69030273 268.17113281 285.38060547 267.34226562 285.06152344 266.48828125 C283.1078381 261.29795572 281.07779384 256.14174549 279 251 C278.53207031 249.82695312 278.06414062 248.65390625 277.58203125 247.4453125 C273.39039373 237.27736267 268.23721177 227.65965911 263 218 C262.59233398 217.24138672 262.18466797 216.48277344 261.76464844 215.70117188 C248.88405771 191.76967886 233.79662056 169.65338531 216.44433594 148.74853516 C214.39626483 146.26910898 212.39006309 143.75627954 210.375 141.25 C204.83613722 134.48255398 198.99776454 127.8230723 192.67578125 121.77734375 C191 120 191 120 191 118 C190.34 118 189.68 118 189 118 C189 117.34 189 116.68 189 116 C188.34 116 187.68 116 187 116 C185.5625 114.50390625 185.5625 114.50390625 184 112.5625 C181.85474956 109.84811762 181.85474956 109.84811762 179 108 C179 107.34 179 106.68 179 106 C178.41347656 105.74347656 177.82695313 105.48695312 177.22265625 105.22265625 C174.79687071 103.88826104 173.32471299 102.45514672 171.4375 100.4375 C167.51987622 96.41868299 163.33738948 92.90950047 158.9609375 89.40234375 C156.43308883 87.35138474 153.96561446 85.2476633 151.51025391 83.11108398 C108.62631946 45.99870669 53.9273773 17.73811492 0 1 C0 0.67 0 0.34 0 0 Z " fill="#A3D9C7" transform="translate(523,0)"/>
<path d="M0 0 C0.99 0.495 0.99 0.495 2 1 C1.26064209 1.52001587 1.26064209 1.52001587 0.50634766 2.05053711 C-8.79541562 8.61604073 -17.72070599 15.16949015 -26 23 C-27.34912936 24.17248814 -28.7031458 25.33938179 -30.0625 26.5 C-53.39104882 46.86544685 -68.99263356 72.78379729 -83 100 C-83.97164734 97.43096738 -84.11728109 96.30747106 -83.12304688 93.70092773 C-82.65962891 92.87020752 -82.19621094 92.0394873 -81.71875 91.18359375 C-81.20957031 90.25925537 -80.70039062 89.33491699 -80.17578125 88.38256836 C-79.62277344 87.4106958 -79.06976563 86.43882324 -78.5 85.4375 C-77.94699219 84.44693604 -77.39398438 83.45637207 -76.82421875 82.43579102 C-72.02188379 73.89323002 -67.14229816 65.65442881 -61 58 C-60.40703125 57.16984375 -59.8140625 56.3396875 -59.203125 55.484375 C-43.43258851 33.40562392 -22.63436525 14.77521065 0 0 Z " fill="#F2FAF7" transform="translate(103,36)"/>
<path d="M0 0 C1.41750563 0.11509661 2.83401169 0.24253658 4.25 0.375 C5.03890625 0.44460938 5.8278125 0.51421875 6.640625 0.5859375 C9 1 9 1 10.79345703 1.94970703 C13.40603273 3.19326763 15.81992739 3.68665416 18.6640625 4.21875 C19.77869873 4.42798096 20.89333496 4.63721191 22.04174805 4.8527832 C23.81545776 5.17315552 23.81545776 5.17315552 25.625 5.5 C26.82874268 5.72067139 28.03248535 5.94134277 29.27270508 6.16870117 C38.81613077 7.87754399 48.34425249 9.15433322 58 10 C58 10.33 58 10.66 58 11 C31.03501706 11.78500678 31.03501706 11.78500678 19 7 C15.57582472 5.87368234 12.13110671 4.81516334 8.6875 3.75 C7.02432205 3.22527995 5.36152532 2.69934908 3.69921875 2.171875 C2.47847656 1.78515625 1.25773438 1.3984375 0 1 C0 0.67 0 0.34 0 0 Z " fill="#E9F6F1" transform="translate(157,1013)"/>
<path d="M0 0 C0.33 0 0.66 0 1 0 C1.08746928 4.04152915 1.14054982 8.08281305 1.1875 12.125 C1.21263672 13.26710938 1.23777344 14.40921875 1.26367188 15.5859375 C1.31612456 21.60051217 1.21551868 25.74904215 -2 31 C-2.87059659 34.14575567 -3.55970382 37.29965654 -4.25390625 40.48828125 C-4.50011719 41.31714844 -4.74632812 42.14601563 -5 43 C-5.99 43.495 -5.99 43.495 -7 44 C-5.9826772 37.01039395 -4.84509407 30.0591041 -3.5 23.125 C-2.0172197 15.45119121 -0.94740607 7.7575838 0 0 Z " fill="#F1F8F8" transform="translate(1023,812)"/>
<path d="M0 0 C0.33 0 0.66 0 1 0 C1.08636719 1.22589844 1.17273438 2.45179688 1.26171875 3.71484375 C2.48084538 19.21908667 4.50965527 35.09866758 9.21875 49.9765625 C9.97339436 52.89703618 10.10325226 54.24186935 9 57 C5.17080612 47.58593441 3.02815655 38.58468384 1.578125 28.54296875 C1.38510638 25.1904395 1.38510638 25.1904395 0 24 C-0.08726223 22.21928754 -0.10699041 20.4351686 -0.09765625 18.65234375 C-0.09443359 17.57275391 -0.09121094 16.49316406 -0.08789062 15.38085938 C-0.07951172 14.24455078 -0.07113281 13.10824219 -0.0625 11.9375 C-0.05798828 10.79732422 -0.05347656 9.65714844 -0.04882812 8.48242188 C-0.03699747 5.65489649 -0.0205141 2.8274736 0 0 Z " fill="#DBE3EF" transform="translate(0,806)"/>
<path d="M0 0 C1.07984544 3.23953633 0.94509971 4.04382218 0.109375 7.21875 C-0.10436768 8.06026611 -0.31811035 8.90178223 -0.53833008 9.76879883 C-0.77318115 10.67009521 -1.00803223 11.5713916 -1.25 12.5 C-3.78188872 22.59849321 -5.55157869 32.69618985 -7 43 C-7.33 43 -7.66 43 -8 43 C-8 35.74 -8 28.48 -8 21 C-7.34 21 -6.68 21 -6 21 C-5.73445312 19.81921875 -5.46890625 18.6384375 -5.1953125 17.421875 C-4.83880998 15.86452189 -4.48202428 14.30723358 -4.125 12.75 C-3.95097656 11.97269531 -3.77695313 11.19539062 -3.59765625 10.39453125 C-3.42363281 9.64042969 -3.24960938 8.88632813 -3.0703125 8.109375 C-2.91320801 7.41811523 -2.75610352 6.72685547 -2.59423828 6.01464844 C-1.95653155 3.85262875 -1.06200166 1.98395915 0 0 Z " fill="#F6FAF9" transform="translate(8,163)"/>
<path d="M0 0 C2.64590014 -0.02684679 5.29153096 -0.04676357 7.9375 -0.0625 C8.69224609 -0.07087891 9.44699219 -0.07925781 10.22460938 -0.08789062 C12.14994313 -0.09652441 14.07535581 -0.05224333 16 0 C16.33 0.33 16.66 0.66 17 1 C19.28666096 1.4237945 21.57982477 1.81254563 23.875 2.1875 C33.54216437 3.86229383 42.71653622 6.88196706 52 10 C52 10.33 52 10.66 52 11 C46.25267818 10.41750117 41.02426751 9.27837272 35.5 7.625 C23.86067352 4.27252567 12.11049273 1.84424108 0 1 C0 0.67 0 0.34 0 0 Z " fill="#EDF8F5" transform="translate(816,0)"/>
<path d="M0 0 C2.72783111 2.72783111 3.2024628 5.80543688 4.125 9.4375 C4.39763672 10.4594043 4.39763672 10.4594043 4.67578125 11.50195312 C5.43511979 14.41655708 6 16.97561204 6 20 C6.66 20 7.32 20 8 20 C8 27.92 8 35.84 8 44 C7.67 44 7.34 44 7 44 C6.87044922 42.32550781 6.87044922 42.32550781 6.73828125 40.6171875 C5.68463738 28.46743871 3.39024723 16.88147789 0.42724609 5.05859375 C0 3 0 3 0 0 Z " fill="#F3FAF9" transform="translate(1016,168)"/>
<path d="M0 0 C0.66 0.33 1.32 0.66 2 1 C-8.23 11.23 -18.46 21.46 -29 32 C-29.66 31.67 -30.32 31.34 -31 31 C-29.88200014 29.66079162 -28.75538103 28.32877444 -27.625 27 C-26.68527344 25.88625 -26.68527344 25.88625 -25.7265625 24.75 C-24.87191406 23.88375 -24.87191406 23.88375 -24 23 C-23.34 23 -22.68 23 -22 23 C-22 22.34 -22 21.68 -22 21 C-21.34 21 -20.68 21 -20 21 C-20 20.34 -20 19.68 -20 19 C-19.34 19 -18.68 19 -18 19 C-18 18.34 -18 17.68 -18 17 C-17.34 17 -16.68 17 -16 17 C-16 16.34 -16 15.68 -16 15 C-15.34 15 -14.68 15 -14 15 C-13.34 13.68 -12.68 12.36 -12 11 C-11.34 11 -10.68 11 -10 11 C-10 10.34 -10 9.68 -10 9 C-9.34 9 -8.68 9 -8 9 C-8 8.34 -8 7.68 -8 7 C-6.25 5.2734375 -6.25 5.2734375 -4 3.375 C-3.2575 2.74335938 -2.515 2.11171875 -1.75 1.4609375 C-0.88375 0.73777344 -0.88375 0.73777344 0 0 Z " fill="#68BAB4" transform="translate(260,407)"/>
<path d="M0 0 C0 0.33 0 0.66 0 1 C-1.28390625 1.15855469 -2.5678125 1.31710938 -3.890625 1.48046875 C-14.3659459 2.84152207 -24.50161025 4.6336018 -34.68847656 7.46166992 C-35.47448242 7.6754126 -36.26048828 7.88915527 -37.0703125 8.109375 C-37.75883301 8.30499023 -38.44735352 8.50060547 -39.15673828 8.70214844 C-41 9 -41 9 -44 8 C-39.01725289 6.27782101 -34.01834536 4.61544351 -29 3 C-27.98679688 2.67 -26.97359375 2.34 -25.9296875 2 C-17.30442984 -0.49868188 -8.89140926 -0.28444082 0 0 Z " fill="#F7FBFA" transform="translate(207,0)"/>
<path d="M0 0 C2.18858217 2.18858217 2.40919077 2.99245023 3.03515625 5.921875 C3.20466797 6.70046875 3.37417969 7.4790625 3.54882812 8.28125 C3.71833984 9.0959375 3.88785156 9.910625 4.0625 10.75 C4.23587891 11.54921875 4.40925781 12.3484375 4.58789062 13.171875 C5.50247226 17.43291436 6.32617007 21.69304578 7 26 C1.6963377 18.04450656 0.32809828 9.40001571 0 0 Z " fill="#EBEFF5" transform="translate(3,837)"/>
<path d="M0 0 C4.97306516 0.49730652 8.63799813 1.55302334 13 4 C10.44855176 4.93045933 9.25993522 5.08564091 6.640625 4.22265625 C5.85171875 3.83980469 5.0628125 3.45695313 4.25 3.0625 C3.45078125 2.68222656 2.6515625 2.30195312 1.828125 1.91015625 C1.22484375 1.60980469 0.6215625 1.30945313 0 1 C0 0.67 0 0.34 0 0 Z " fill="#E9F6F1" transform="translate(144,1008)"/>
<path d="M0 0 C-1.2179755 3.65392651 -2.14396506 3.95831699 -5.4375 5.75 C-6.64212891 6.42289063 -6.64212891 6.42289063 -7.87109375 7.109375 C-8.92490234 7.55023437 -8.92490234 7.55023437 -10 8 C-10.66 7.67 -11.32 7.34 -12 7 C-10.3790787 5.82767315 -8.75313167 4.6622923 -7.125 3.5 C-6.22007812 2.8503125 -5.31515625 2.200625 -4.3828125 1.53125 C-2 0 -2 0 0 0 Z " fill="#4B83B0" transform="translate(667,642)"/>
</svg>
