<?xml version="1.0" encoding="UTF-8"?>
<svg version="1.1" xmlns="http://www.w3.org/2000/svg" width="500" height="500">
<path d="M0 0 C1.09699219 0.49113281 2.19398438 0.98226562 3.32421875 1.48828125 C19.86886154 9.25110917 35.84815621 21.44064839 47 36 C47 36.66 47 37.32 47 38 C47.66 38 48.32 38 49 38 C50.66927955 40.32234322 52.19416352 42.62939861 53.6875 45.0625 C54.13375732 45.78622803 54.58001465 46.50995605 55.03979492 47.25561523 C73.19058031 77.23947329 79.5204248 112.03766045 71.25 146.25 C67.23278224 161.6147637 60.42070463 177.15891506 51 190 C50.34 190 49.68 190 49 190 C48.773125 190.70125 48.54625 191.4025 48.3125 192.125 C46.66158712 195.74128535 44.7091165 198.08769976 42 201 C41.34 201 40.68 201 40 201 C39.7525 201.61875 39.505 202.2375 39.25 202.875 C37.79371361 205.35068687 36.62187494 205.95125002 34 207 C34 207.66 34 208.32 34 209 C31.87088548 210.85699455 29.73857624 212.59633372 27.5 214.3125 C26.85144043 214.81305908 26.20288086 215.31361816 25.53466797 215.8293457 C21.1629249 219.17415088 16.84503609 222.36936185 12 225 C10.89914062 225.61359375 9.79828125 226.2271875 8.6640625 226.859375 C-5.5023995 234.49585567 -20.95785107 239.40587451 -37 241 C-38.11761719 241.13277344 -39.23523438 241.26554688 -40.38671875 241.40234375 C-63.60852994 243.63665856 -89.73002579 239.34678907 -110.11450195 227.67578125 C-113.98011797 226.29030603 -117.47908157 228.35690473 -121 230 C-122.26650391 230.57041016 -122.26650391 230.57041016 -123.55859375 231.15234375 C-125.38554437 231.98229374 -127.20968568 232.81845026 -129.03125 233.66015625 C-145.69721936 241.18177137 -145.69721936 241.18177137 -152 240 C-154.9375 238.5625 -154.9375 238.5625 -157 236 C-158.0741823 230.70070066 -157.01321513 226.80356429 -154.81542969 221.92944336 C-153.37640297 218.52446486 -152.39681968 214.98548499 -151.375 211.4375 C-151.1584375 210.70853516 -150.941875 209.97957031 -150.71875 209.22851562 C-149.54028893 205.18755808 -148.42585134 201.20130946 -148 197 C-149.35444301 195.22809091 -149.35444301 195.22809091 -151 194 C-151 193.34 -151 192.68 -151 192 C-151.66 192 -152.32 192 -153 192 C-154.66929135 189.67764037 -156.19427659 187.37069518 -157.6875 184.9375 C-158.35688599 183.85082031 -158.35688599 183.85082031 -159.03979492 182.7421875 C-166.28555432 170.76357358 -171.29162251 158.48104289 -175 145 C-175.23589844 144.16597656 -175.47179687 143.33195313 -175.71484375 142.47265625 C-183.22040838 111.29990972 -175.96895275 76.98741997 -160.05859375 49.72216797 C-157.32389299 45.27323365 -154.17231003 41.14038587 -151 37 C-150.34 36.01 -149.68 35.02 -149 34 C-148.34 34 -147.68 34 -147 34 C-146.7628125 33.43796875 -146.525625 32.8759375 -146.28125 32.296875 C-144.71052303 29.48105958 -142.78528536 27.52044584 -140.5 25.25 C-139.7059375 24.45078125 -138.911875 23.6515625 -138.09375 22.828125 C-136 21 -136 21 -134 21 C-134 20.34 -134 19.68 -134 19 C-131.69839913 16.88331848 -129.05886435 15.16667335 -126.5 13.375 C-125.73550537 12.83810547 -124.97101074 12.30121094 -124.18334961 11.74804688 C-116.80508338 6.68103563 -109.14506724 2.67553965 -101 -1 C-100.12214844 -1.40734375 -99.24429688 -1.8146875 -98.33984375 -2.234375 C-67.93841639 -15.4303201 -29.76241499 -13.92553362 0 0 Z M-122 48 C-123.25588288 50.13723435 -123.25588288 50.13723435 -124 52 C-124.66 52 -125.32 52 -126 52 C-144.19166034 74.0413478 -151.44141099 101.09482698 -148.78173828 129.31591797 C-146.37384801 147.94003938 -137.48932543 168.54302307 -124 182 C-123.34 182 -122.68 182 -122 182 C-121.67 182.99 -121.34 183.98 -121 185 C-120.34 185 -119.68 185 -119 185 C-119 185.66 -119 186.32 -119 187 C-118.34 187 -117.68 187 -117 187 C-117 187.66 -117 188.32 -117 189 C-116.34 189 -115.68 189 -115 189 C-115 189.66 -115 190.32 -115 191 C-111.36676311 193.96235695 -111.36676311 193.96235695 -107 195 C-107 195.66 -107 196.32 -107 197 C-94.01340655 204.22804901 -94.01340655 204.22804901 -80 209 C-79.03707031 209.32871094 -78.07414062 209.65742188 -77.08203125 209.99609375 C-55.24388001 217.1094079 -29.42004197 213.77530202 -9 204 C-6.25284264 202.48044561 -3.58727074 200.90603767 -0.953125 199.19921875 C1 198 1 198 4 197 C4 196.34 4 195.68 4 195 C6.475 194.01 6.475 194.01 9 193 C9 192.34 9 191.68 9 191 C9.53625 190.773125 10.0725 190.54625 10.625 190.3125 C16.43959708 187.09917004 20.51278092 182.50693072 24.5 177.3125 C24.97848389 176.69238037 25.45696777 176.07226074 25.94995117 175.43334961 C41.90149028 154.48899232 48.86295581 128.72761916 45.69970703 102.51123047 C43.28289882 87.63785406 37.60066237 73.96425036 30 61 C29.34 61 28.68 61 28 61 C27.83721558 60.11380981 27.83721558 60.11380981 27.67114258 59.2097168 C26.91729959 56.72771137 26.00594588 55.54517383 24.26171875 53.64453125 C23.69533691 53.02650635 23.12895508 52.40848145 22.54541016 51.77172852 C21.9322998 51.12518311 21.31918945 50.4786377 20.6875 49.8125 C20.05376465 49.143396 19.4200293 48.47429199 18.76708984 47.78491211 C2.26350325 30.70091152 -21.48477225 18.67421441 -45.47265625 17.6640625 C-74.62642565 17.189052 -101.58041519 26.3378441 -122 48 Z " fill="#5488AB" transform="translate(300,122)"/>
<path d="M0 0 C0.99 0.66 1.98 1.32 3 2 C3 2.66 3 3.32 3 4 C3.66 4 4.32 4 5 4 C5 4.66 5 5.32 5 6 C5.66 6 6.32 6 7 6 C7.99 8.475 7.99 8.475 9 11 C9.66 11 10.32 11 11 11 C15.3126644 18.23414674 17.44117253 24.23530986 15.3125 32.75 C13.30909359 36.18441099 10.52654122 38.23672939 7 40 C2.26276697 40.5197324 -1.78064394 40.52599673 -6.1875 38.625 C-9.57051807 35.46751647 -11.96896966 32.01394983 -14.484375 28.14453125 C-15.82362295 25.89139115 -15.82362295 25.89139115 -18 25 C-18 24.34 -18 23.68 -18 23 C-28.54104386 19.21603554 -39.83471729 16.79034112 -50.5 21.75 C-54.85929909 24.28447621 -58.37470884 27.12412653 -60 32 C-60.06937062 34.22818441 -60.08457084 36.45834524 -60.0625 38.6875 C-60.05347656 39.86699219 -60.04445312 41.04648438 -60.03515625 42.26171875 C-60.02355469 43.16535156 -60.01195312 44.06898438 -60 45 C-59.34 45 -58.68 45 -58 45 C-56.9790625 46.11375 -56.9790625 46.11375 -55.9375 47.25 C-48.98975473 54.40429986 -37.07203291 56.21528186 -27.85742188 58.91210938 C-18.93366939 61.57819217 -10.29888182 64.7438191 -2 69 C-2 69.66 -2 70.32 -2 71 C-1.34 71 -0.68 71 0 71 C-1.54298493 75.56510713 -5.14433456 77.5756237 -8.9375 80.1875 C-9.88786133 80.86329102 -9.88786133 80.86329102 -10.85742188 81.55273438 C-13.54304626 83.43634265 -15.87211298 84.95737099 -19 86 C-19 86.66 -19 87.32 -19 88 C-21.68536001 89.84536895 -23.79622427 91.13255617 -27.12841797 90.765625 C-29.6082346 90.11008356 -32.01315308 89.33785467 -34.4375 88.5 C-35.32058838 88.2124585 -36.20367676 87.92491699 -37.11352539 87.62866211 C-38.90552367 87.04267624 -40.69457673 86.44760183 -42.48046875 85.84326172 C-44.70690444 85.09809613 -46.93917956 84.39813849 -49.1875 83.72265625 C-58.94082784 80.70522045 -69.16637941 76.76794906 -77 70 C-77 69.34 -77 68.68 -77 68 C-77.66 68 -78.32 68 -79 68 C-79 67.34 -79 66.68 -79 66 C-79.66 66 -80.32 66 -81 66 C-89.3639957 55.46928675 -90.89524844 43.04504866 -90 30 C-88.7327483 19.58037493 -82.4637343 8.57545848 -74.453125 1.8671875 C-52.19294794 -14.7971992 -23.19864268 -15.75150334 0 0 Z " fill="#55B2AD" transform="translate(284,164)"/>
<path d="M0 0 C2.4375 0.9375 2.4375 0.9375 3.75 3.5 C3.976875 4.304375 4.20375 5.10875 4.4375 5.9375 C5.0975 5.9375 5.7575 5.9375 6.4375 5.9375 C11.70843837 18.12194823 13.99816868 32.05904035 9.4375 44.9375 C3.65927013 58.59350289 -4.71231186 68.45685263 -18.6875 74.3125 C-26.80917788 77.4050962 -34.79731941 78.30236473 -43.4375 78.25 C-44.41058105 78.24436035 -45.38366211 78.2387207 -46.38623047 78.23291016 C-59.02650984 78.01874001 -71.78745814 74.44155533 -81.5625 65.9375 C-81.5625 65.2775 -81.5625 64.6175 -81.5625 63.9375 C-82.160625 63.67195313 -82.75875 63.40640625 -83.375 63.1328125 C-89.36911432 59.85745718 -93.18858056 53.16135096 -95.5625 46.9375 C-96.77824785 41.90083032 -96.67047831 38.68045119 -94.5625 33.9375 C-93.0625 31.5625 -93.0625 31.5625 -91.5625 29.9375 C-90.9025 29.9375 -90.2425 29.9375 -89.5625 29.9375 C-89.5625 29.2775 -89.5625 28.6175 -89.5625 27.9375 C-84.16130605 26.13710202 -79.24908568 26.31612633 -74 28.25 C-70.69147091 30.32900815 -69.19590171 32.970823 -67.25 36.3125 C-63.61010186 42.24918975 -60.37062381 45.92027813 -53.5625 47.9375 C-44.39001521 49.23046718 -33.57868643 49.6872142 -25.484375 44.62109375 C-20.8478101 40.5593875 -17.93514907 36.38042166 -17 30.25 C-17.74832953 25.84317054 -19.05685404 22.44314596 -22.25 19.25 C-22.683125 18.816875 -23.11625 18.38375 -23.5625 17.9375 C-23.5625 16.9475 -23.5625 15.9575 -23.5625 14.9375 C-21.3478854 13.08409259 -19.18153856 11.44356425 -16.8125 9.8125 C-16.17828125 9.35746094 -15.5440625 8.90242187 -14.890625 8.43359375 C-11.77500706 6.24617032 -9.33721291 4.70711169 -5.5625 3.9375 C-5.5625 3.2775 -5.5625 2.6175 -5.5625 1.9375 C-2.5625 -0.0625 -2.5625 -0.0625 0 0 Z " fill="#4C5EAE" transform="translate(290.5625,242.0625)"/>
<path d="M0 0 C1.09699219 0.49113281 2.19398438 0.98226562 3.32421875 1.48828125 C19.86886154 9.25110917 35.84815621 21.44064839 47 36 C47 36.66 47 37.32 47 38 C47.66 38 48.32 38 49 38 C50.32 40.31 51.64 42.62 53 45 C50.69 45 48.38 45 46 45 C46 42.36 46 39.72 46 37 C43.36 37.33 40.72 37.66 38 38 C37.67 37.34 37.34 36.68 37 36 C37.33 35.01 37.66 34.02 38 33 C37.60602665 30.36195411 37.60602665 30.36195411 37 28 C36.21625 27.938125 35.4325 27.87625 34.625 27.8125 C33.75875 27.544375 32.8925 27.27625 32 27 C30.6875 24.4375 30.6875 24.4375 30 22 C29.34 22 28.68 22 28 22 C27.67 21.34 27.34 20.68 27 20 C26.67 20.66 26.34 21.32 26 22 C25.34 21.67 24.68 21.34 24 21 C24.33 20.34 24.66 19.68 25 19 C24.01 19.33 23.02 19.66 22 20 C21 17 21 17 21 15 C18.69631264 13.93347808 16.35981813 12.93578995 14 12 C13.34 12.33 12.68 12.66 12 13 C11.95617187 12.40703125 11.91234375 11.8140625 11.8671875 11.203125 C10.5494735 7.85541917 8.30828191 7.26148638 5.125 5.75 C4.05507813 5.22921875 2.98515625 4.7084375 1.8828125 4.171875 C-0.94454285 2.81171047 -0.94454285 2.81171047 -4 3 C-4.45375 2.525625 -4.9075 2.05125 -5.375 1.5625 C-7.46366683 -0.44583349 -9.1783448 -0.61869524 -12 -1 C-12 -1.66 -12 -2.32 -12 -3 C-12.845625 -2.979375 -13.69125 -2.95875 -14.5625 -2.9375 C-18 -3 -18 -3 -21.375 -3.5625 C-24.40001659 -3.92758821 -26.26935577 -3.90310372 -29.1875 -3.4375 C-32.96524932 -3.00398778 -33.98753757 -2.95582907 -37 -5 C-39.73140176 -6.48985551 -40.80601677 -7 -44 -7 C-44 -7.66 -44 -8.32 -44 -9 C-47.06383902 -8.91280537 -50.12484051 -8.80589603 -53.1875 -8.6875 C-54.05181641 -8.66494141 -54.91613281 -8.64238281 -55.80664062 -8.61914062 C-60.73414179 -8.41146816 -63.89160715 -7.97559327 -68 -5 C-68.66 -5 -69.32 -5 -70 -5 C-70 -5.66 -70 -6.32 -70 -7 C-71.65 -6.34 -73.3 -5.68 -75 -5 C-75 -4.01 -75 -3.02 -75 -2 C-75.66 -2 -76.32 -2 -77 -2 C-77 -2.66 -77 -3.32 -77 -4 C-77.99 -3.67 -78.98 -3.34 -80 -3 C-81.32 -3 -82.64 -3 -84 -3 C-86.3139172 -2.40133206 -86.3139172 -2.40133206 -88.625 -1.5625 C-89.78902344 -1.16224609 -89.78902344 -1.16224609 -90.9765625 -0.75390625 C-93.02733276 -0.03082954 -93.02733276 -0.03082954 -95 1 C-95.99 0.505 -95.99 0.505 -97 0 C-97.33 1.32 -97.66 2.64 -98 4 C-98.57878906 3.79890625 -99.15757812 3.5978125 -99.75390625 3.390625 C-102.51551379 2.91034543 -103.50698694 3.42164039 -105.9375 4.75 C-106.6284375 5.12382813 -107.319375 5.49765625 -108.03125 5.8828125 C-108.6809375 6.25148437 -109.330625 6.62015625 -110 7 C-110.969375 7.53625 -111.93875 8.0725 -112.9375 8.625 C-115.12532676 9.83720441 -115.12532676 9.83720441 -116 12 C-118.32671865 13.01529541 -120.6603447 14.01488198 -123 15 C-123.66 15.66 -124.32 16.32 -125 17 C-124.6814823 19.10820797 -124.6814823 19.10820797 -124 21 C-124.99 21.495 -124.99 21.495 -126 22 C-126 21.34 -126 20.68 -126 20 C-129.81413002 21.1678266 -129.81413002 21.1678266 -132.3125 24.125 C-132.6528125 25.053125 -132.6528125 25.053125 -133 26 C-133.99 26 -134.98 26 -136 26 C-136 26.66 -136 27.32 -136 28 C-140.30232558 32.76744186 -140.30232558 32.76744186 -144 34 C-144 34.66 -144 35.32 -144 36 C-144.639375 36.61875 -145.27875 37.2375 -145.9375 37.875 C-148.1452473 39.75825879 -148.1452473 39.75825879 -148.375 42 C-149 44 -149 44 -151.9375 45.875 C-155.48829394 48.3388162 -156.06191049 49.87240616 -157 54 C-157.66 54 -158.32 54 -159 54 C-159.268125 55.258125 -159.53625 56.51625 -159.8125 57.8125 C-160.62587633 61.14207648 -161.44961445 62.68146769 -164 65 C-164 66.32 -164 67.64 -164 69 C-165.31200404 70.35432675 -166.64631404 71.68733482 -168 73 C-168.73323796 75.01508358 -168.73323796 75.01508358 -169 77 C-169.33 77.99 -169.66 78.98 -170 80 C-170.66 80 -171.32 80 -172 80 C-172.495 80.99 -172.495 80.99 -173 82 C-171.82866972 75.78776622 -170.10416802 70.19384468 -167.5 64.4375 C-167.15614258 63.67026611 -166.81228516 62.90303223 -166.45800781 62.11254883 C-161.90644089 52.25992362 -156.25571554 42.13942449 -149 34 C-148.34 34 -147.68 34 -147 34 C-146.7628125 33.43796875 -146.525625 32.8759375 -146.28125 32.296875 C-144.71052303 29.48105958 -142.78528536 27.52044584 -140.5 25.25 C-139.7059375 24.45078125 -138.911875 23.6515625 -138.09375 22.828125 C-136 21 -136 21 -134 21 C-134 20.34 -134 19.68 -134 19 C-131.69839913 16.88331848 -129.05886435 15.16667335 -126.5 13.375 C-125.73550537 12.83810547 -124.97101074 12.30121094 -124.18334961 11.74804688 C-116.80508338 6.68103563 -109.14506724 2.67553965 -101 -1 C-100.12214844 -1.40734375 -99.24429688 -1.8146875 -98.33984375 -2.234375 C-67.93841639 -15.4303201 -29.76241499 -13.92553362 0 0 Z " fill="#88DDB8" transform="translate(300,122)"/>
<path d="M0 0 C1.09699219 0.49113281 2.19398438 0.98226562 3.32421875 1.48828125 C19.86886154 9.25110917 35.84815621 21.44064839 47 36 C47 36.66 47 37.32 47 38 C47.66 38 48.32 38 49 38 C50.32 40.31 51.64 42.62 53 45 C50.69 45 48.38 45 46 45 C46 42.36 46 39.72 46 37 C43.36 37.33 40.72 37.66 38 38 C37.67 37.34 37.34 36.68 37 36 C37.33 35.01 37.66 34.02 38 33 C37.60602665 30.36195411 37.60602665 30.36195411 37 28 C36.21625 27.938125 35.4325 27.87625 34.625 27.8125 C33.75875 27.544375 32.8925 27.27625 32 27 C30.6875 24.4375 30.6875 24.4375 30 22 C29.34 22 28.68 22 28 22 C27.67 21.34 27.34 20.68 27 20 C26.67 20.66 26.34 21.32 26 22 C25.34 21.67 24.68 21.34 24 21 C24.33 20.34 24.66 19.68 25 19 C23.515 19.495 23.515 19.495 22 20 C21 17 21 17 21 15 C18.69631264 13.93347808 16.35981813 12.93578995 14 12 C13.34 12.33 12.68 12.66 12 13 C11.95617187 12.40703125 11.91234375 11.8140625 11.8671875 11.203125 C10.5494735 7.85541917 8.30828191 7.26148638 5.125 5.75 C4.05507813 5.22921875 2.98515625 4.7084375 1.8828125 4.171875 C-0.94454285 2.81171047 -0.94454285 2.81171047 -4 3 C-4.680625 2.2884375 -4.680625 2.2884375 -5.375 1.5625 C-7.46366683 -0.44583349 -9.1783448 -0.61869524 -12 -1 C-12 -1.66 -12 -2.32 -12 -3 C-12.845625 -2.979375 -13.69125 -2.95875 -14.5625 -2.9375 C-18 -3 -18 -3 -21.375 -3.5625 C-24.40001659 -3.92758821 -26.26935577 -3.90310372 -29.1875 -3.4375 C-32.96524932 -3.00398778 -33.98753757 -2.95582907 -37 -5 C-39.73140176 -6.48985551 -40.80601677 -7 -44 -7 C-44 -7.66 -44 -8.32 -44 -9 C-45.84851563 -8.89171875 -45.84851563 -8.89171875 -47.734375 -8.78125 C-56.83141429 -8.26528205 -65.88400751 -7.83623966 -75 -8 C-75 -8.33 -75 -8.66 -75 -9 C-49.02422674 -12.16915752 -24.11292432 -11.28219395 0 0 Z " fill="#8AD7BB" transform="translate(300,122)"/>
<path d="M0 0 C12.87 0 25.74 0 39 0 C39.495 0.99 39.495 0.99 40 2 C42.64 2 45.28 2 48 2 C48 2.99 48 3.98 48 5 C49.32 5.33 50.64 5.66 52 6 C48.10679283 7.29773572 46.8811526 6.31681963 43 5 C17.60957668 -0.81486151 -8.55610857 3.49316505 -30.66796875 17.203125 C-38.40085041 22.26265167 -46.82936653 28.24404979 -52 36 C-52.66 36 -53.32 36 -54 36 C-54.23460937 36.51046875 -54.46921875 37.0209375 -54.7109375 37.546875 C-56.48089197 40.91515199 -58.55158635 44.06212652 -60.625 47.25 C-61.25535156 48.22453125 -61.25535156 48.22453125 -61.8984375 49.21875 C-62.93045673 50.81368881 -63.96498028 52.40700669 -65 54 C-67.0703125 50.3046875 -67.0703125 50.3046875 -66.4375 47.5625 C-65 45 -65 45 -62.5 42.5625 C-59.7917262 40.1822853 -59.7917262 40.1822853 -59.0625 36.875 C-58 34 -58 34 -55.125 32.4375 C-54.09375 31.963125 -53.0625 31.48875 -52 31 C-49.77831634 28.61881834 -49.77831634 28.61881834 -48 26 C-47.4225 25.236875 -46.845 24.47375 -46.25 23.6875 C-45.63125 22.8521875 -45.63125 22.8521875 -45 22 C-44.34 22.33 -43.68 22.66 -43 23 C-43 22.01 -43 21.02 -43 20 C-42.195625 19.731875 -41.39125 19.46375 -40.5625 19.1875 C-39.2940625 18.5996875 -39.2940625 18.5996875 -38 18 C-37.67 17.01 -37.34 16.02 -37 15 C-36.071875 14.87625 -35.14375 14.7525 -34.1875 14.625 C-30.86074765 14.18466918 -30.86074765 14.18466918 -28 12 C-27.01 12 -26.02 12 -25 12 C-25 11.34 -25 10.68 -25 10 C-21.535 9.505 -21.535 9.505 -18 9 C-18 8.34 -18 7.68 -18 7 C-17.43410156 6.87882813 -16.86820313 6.75765625 -16.28515625 6.6328125 C-15.55167969 6.46523437 -14.81820312 6.29765625 -14.0625 6.125 C-13.33160156 5.96257812 -12.60070312 5.80015625 -11.84765625 5.6328125 C-9.79299706 5.17038477 -9.79299706 5.17038477 -9 3 C-6.93359375 2.5859375 -6.93359375 2.5859375 -4.4375 2.375 C-3.61121094 2.30023438 -2.78492188 2.22546875 -1.93359375 2.1484375 C-0.97646484 2.07496094 -0.97646484 2.07496094 0 2 C0 1.34 0 0.68 0 0 Z " fill="#82D9B5" transform="translate(228,138)"/>
<path d="M0 0 C13.44919556 3.94065351 26.57839803 17.00513076 35 28 C35 28.66 35 29.32 35 30 C35.66 30 36.32 30 37 30 C38.32 32.31 39.64 34.62 41 37 C38.69 37 36.38 37 34 37 C34 34.36 34 31.72 34 29 C30.04 29.495 30.04 29.495 26 30 C25.67 29.34 25.34 28.68 25 28 C25.33 27.01 25.66 26.02 26 25 C25.60602665 22.36195411 25.60602665 22.36195411 25 20 C24.21625 19.938125 23.4325 19.87625 22.625 19.8125 C21.75875 19.544375 20.8925 19.27625 20 19 C18.6875 16.4375 18.6875 16.4375 18 14 C17.34 14 16.68 14 16 14 C15.67 13.34 15.34 12.68 15 12 C14.67 12.66 14.34 13.32 14 14 C13.34 13.67 12.68 13.34 12 13 C12.33 12.34 12.66 11.68 13 11 C12.01 11.33 11.02 11.66 10 12 C9 9 9 9 9 7 C6.69631264 5.93347808 4.35981813 4.93578995 2 4 C1.01 4.495 1.01 4.495 0 5 C0 3.35 0 1.7 0 0 Z " fill="#70C3B4" transform="translate(312,130)"/>
<path d="M0 0 C0.33 1.32 0.66 2.64 1 4 C1.66 4 2.32 4 3 4 C3 4.66 3 5.32 3 6 C2.34 6 1.68 6 1 6 C1.33 7.32 1.66 8.64 2 10 C1.01 10.495 1.01 10.495 0 11 C-0.68472665 12.88764903 -0.68472665 12.88764903 -1.125 15.0625 C-1.29257813 15.79597656 -1.46015625 16.52945312 -1.6328125 17.28515625 C-1.75398437 17.85105469 -1.87515625 18.41695313 -2 19 C-1.34 19.33 -0.68 19.66 0 20 C0.33 20.33 0.66 20.66 1 21 C2.99422795 21.36628677 4.99453311 21.70131344 7 22 C7 21.01 7 20.02 7 19 C6.34 19 5.68 19 5 19 C5 18.34 5 17.68 5 17 C8.11771927 15.39660152 9.39011689 14.81025859 12.8125 15.875 C13.534375 16.24625 14.25625 16.6175 15 17 C15 19.3125 15 19.3125 14 22 C9.45465504 24.83806905 4.26357133 25.69518867 -1 25 C-3.9375 23.5625 -3.9375 23.5625 -6 21 C-7.55589065 14.29875169 -5.06327025 7.91412395 -2 2 C-1.34 1.34 -0.68 0.68 0 0 Z " fill="#5D62AE" transform="translate(149,337)"/>
<path d="M0 0 C-2.6858793 3.46337067 -6.34154231 4.35836993 -10.375 5.5625 C-11.44802368 5.88782715 -11.44802368 5.88782715 -12.54272461 6.21972656 C-26.53667304 10.32158891 -48.5377584 15.05854299 -62.36328125 8.95703125 C-62.90339844 8.64121094 -63.44351563 8.32539063 -64 8 C-63.34 7.34 -62.68 6.68 -62 6 C-61.67 6.33 -61.34 6.66 -61 7 C-57.01316655 7.24400131 -53.02248351 7.22861641 -49.02880859 7.24023438 C-47.03601031 7.24982667 -45.04335311 7.28096573 -43.05078125 7.3125 C-35.69202837 7.3422624 -29.80035099 6.7658144 -23 4 C-21.67200825 3.64598475 -20.33970878 3.30670716 -19 3 C-19 2.34 -19 1.68 -19 1 C-17.35 1 -15.7 1 -14 1 C-14 1.66 -14 2.32 -14 3 C-13.40832031 2.7834375 -12.81664062 2.566875 -12.20703125 2.34375 C-4.35852373 -0.42179262 -4.35852373 -0.42179262 0 0 Z " fill="#613EA3" transform="translate(295,353)"/>
<path d="M0 0 C3.71888239 0.50712033 6.73454239 1.11608215 10 3 C10 3.66 10 4.32 10 5 C10.66 5 11.32 5 12 5 C10.45701507 9.56510713 6.85566544 11.5756237 3.0625 14.1875 C2.42892578 14.63802734 1.79535156 15.08855469 1.14257812 15.55273438 C-1.54304626 17.43634265 -3.87211298 18.95737099 -7 20 C-7 20.66 -7 21.32 -7 22 C-9.75 23.625 -9.75 23.625 -13 25 C-15.375 24.1875 -15.375 24.1875 -17 23 C-15.35 23 -13.7 23 -12 23 C-12.33 22.01 -12.66 21.02 -13 20 C-11.35 20 -9.7 20 -8 20 C-8 18.68 -8 17.36 -8 16 C-7.34 16 -6.68 16 -6 16 C-6 15.34 -6 14.68 -6 14 C-4 12.375 -4 12.375 -2 11 C-1.34 11.33 -0.68 11.66 0 12 C0.2165625 10.824375 0.2165625 10.824375 0.4375 9.625 C1 7 1 7 2 5 C1.34 4.67 0.68 4.34 0 4 C0.66 4 1.32 4 2 4 C1.34 2.68 0.68 1.36 0 0 Z " fill="#6595B3" transform="translate(272,230)"/>
<path d="M0 0 C1.9453125 -0.29296875 1.9453125 -0.29296875 4.125 -0.1875 C5.40375 -0.125625 6.6825 -0.06375 8 0 C7.45276317 3.37462715 6.9451 5.08235 5 8 C4.34 8 3.68 8 3 8 C2.773125 8.70125 2.54625 9.4025 2.3125 10.125 C0.6798289 13.70132718 -1.25379043 16.18992509 -4 19 C-6.8125 19.875 -6.8125 19.875 -9 20 C-10.125 16.25 -10.125 16.25 -9 14 C-8.64386903 12.33805547 -8.30791692 10.671549 -8 9 C-6.02 8.67 -4.04 8.34 -2 8 C-2.061875 6.8553125 -2.061875 6.8553125 -2.125 5.6875 C-2 3 -2 3 0 0 Z " fill="#6850B0" transform="translate(346,304)"/>
<path d="M0 0 C0.66 0.99 1.32 1.98 2 3 C-1.59837056 12.01591735 -13.68797417 16.62258372 -21.93359375 20.75 C-25 22 -25 22 -29 22 C-28.25 19.0625 -28.25 19.0625 -27 16 C-24.14297313 14.62074565 -21.13680281 14.91286659 -18 15 C-18 14.34 -18 13.68 -18 13 C-16.7934375 12.319375 -16.7934375 12.319375 -15.5625 11.625 C-12.84763807 10.26579005 -12.84763807 10.26579005 -12.1875 7.8125 C-12.0946875 6.9153125 -12.0946875 6.9153125 -12 6 C-10.35 5.67 -8.7 5.34 -7 5 C-6.67 5.66 -6.34 6.32 -6 7 C-5.34 6.34 -4.68 5.68 -4 5 C-3.34 5 -2.68 5 -2 5 C-1.34 3.35 -0.68 1.7 0 0 Z " fill="#542BA0" transform="translate(325,331)"/>
<path d="M0 0 C1.32 0 2.64 0 4 0 C3.34 1.32 2.68 2.64 2 4 C1.505 3.505 1.505 3.505 1 3 C0.01 4.485 0.01 4.485 -1 6 C-2.31387169 7.35251497 -3.64426252 8.68945377 -5 10 C-4.67 10.66 -4.34 11.32 -4 12 C-4.99 12.33 -5.98 12.66 -7 13 C-10.4218175 15.88715851 -12.15819067 18.94801946 -14 23 C-14.66 23 -15.32 23 -16 23 C-16.33 23.99 -16.66 24.98 -17 26 C-17.66 26.66 -18.32 27.32 -19 28 C-19.46019531 28.48082031 -19.92039062 28.96164062 -20.39453125 29.45703125 C-22.06373036 31.06124938 -23.79048617 32.36316959 -25.6875 33.6875 C-26.31011719 34.12449219 -26.93273437 34.56148438 -27.57421875 35.01171875 C-28.04472656 35.33785156 -28.51523437 35.66398437 -29 36 C-29.66 35.67 -30.32 35.34 -31 35 C-31 34.34 -31 33.68 -31 33 C-29.7646136 32.03609358 -28.48353812 31.13067039 -27.1875 30.25 C-22.81395001 26.95599716 -19.53159576 23.28651759 -16.1875 19 C-15.73205811 18.41895508 -15.27661621 17.83791016 -14.80737305 17.23925781 C-12.58792233 14.33008267 -10.62951178 11.42398909 -8.875 8.2109375 C-6.73540263 4.546877 -4.63386716 3.09956769 -1 1 C-0.67 0.67 -0.34 0.34 0 0 Z " fill="#6659AD" transform="translate(340,280)"/>
<path d="M0 0 C2.4375 0.875 2.4375 0.875 3.75 2.9375 C4.0903125 3.8965625 4.0903125 3.8965625 4.4375 4.875 C3.674375 4.936875 2.91125 4.99875 2.125 5.0625 C-0.78046455 5.64508615 -0.78046455 5.64508615 -2.375 8.375 C-3.63400947 10.56426313 -3.63400947 10.56426313 -3.5625 11.875 C-4.99907245 12.21230842 -6.43680093 12.54469591 -7.875 12.875 C-9.07576172 13.1534375 -9.07576172 13.1534375 -10.30078125 13.4375 C-14.10072124 14.17254884 -15.25041565 14.08305623 -18.5625 11.875 C-16.96570196 10.5328508 -15.35979803 9.20152885 -13.75 7.875 C-12.85667969 7.1325 -11.96335937 6.39 -11.04296875 5.625 C-8.5625 3.875 -8.5625 3.875 -5.5625 3.875 C-5.5625 3.215 -5.5625 2.555 -5.5625 1.875 C-2.5625 -0.125 -2.5625 -0.125 0 0 Z " fill="#4875AC" transform="translate(290.5625,242.125)"/>
<path d="M0 0 C15.32457975 -0.43854123 29.42754034 1.55309595 42 11 C42 11.33 42 11.66 42 12 C40.33388095 12.042721 38.66617115 12.04063832 37 12 C36.505 11.505 36.505 11.505 36 11 C35.67 11.66 35.34 12.32 35 13 C33.68 12.34 32.36 11.68 31 11 C31.66 10.01 32.32 9.02 33 8 C32.38511719 7.86722656 31.77023437 7.73445312 31.13671875 7.59765625 C30.32847656 7.42105469 29.52023437 7.24445313 28.6875 7.0625 C27.88699219 6.88847656 27.08648437 6.71445313 26.26171875 6.53515625 C24 6 24 6 21 5 C19.33178677 5.32550502 17.66500443 5.65846063 16 6 C15.34 5.67 14.68 5.34 14 5 C14 4.01 14 3.02 14 2 C12.35 2 10.7 2 9 2 C8.67 2.66 8.34 3.32 8 4 C7.67 3.34 7.34 2.68 7 2 C4.67843403 1.59270772 2.3431213 1.25561323 0 1 C0 0.67 0 0.34 0 0 Z " fill="#6ECBB2" transform="translate(242,153)"/>
<path d="M0 0 C0.33 0.66 0.66 1.32 1 2 C0.67 2.99 0.34 3.98 0 5 C-2.5625 6.1875 -2.5625 6.1875 -5 7 C-4.34 8.65 -3.68 10.3 -3 12 C-3.99 12.33 -4.98 12.66 -6 13 C-6.33 12.34 -6.66 11.68 -7 11 C-15.69199047 13.25693037 -15.69199047 13.25693037 -21 20 C-21.66 20 -22.32 20 -23 20 C-23.66 18.68 -24.32 17.36 -25 16 C-24.34 16 -23.68 16 -23 16 C-23 15.34 -23 14.68 -23 14 C-20.51434757 12.06972495 -17.71867825 10.57916624 -15 9 C-14.19820313 8.525625 -13.39640625 8.05125 -12.5703125 7.5625 C-6.39666193 4 -6.39666193 4 -3 4 C-3 3.34 -3 2.68 -3 2 C-2.01 1.34 -1.02 0.68 0 0 Z " fill="#624CAC" transform="translate(307,315)"/>
<path d="M0 0 C-0.49954347 6.02827452 -1.841817 10.71812762 -4.375 16.1875 C-4.67921875 16.87263672 -4.9834375 17.55777344 -5.296875 18.26367188 C-8.65104612 25.71021843 -8.65104612 25.71021843 -11 29 C-14.1875 29.8125 -14.1875 29.8125 -17 30 C-17.25 27.6875 -17.25 27.6875 -17 25 C-15.1875 23.1875 -15.1875 23.1875 -13 22 C-12.01 22 -11.02 22 -10 22 C-9.731875 21.319375 -9.46375 20.63875 -9.1875 19.9375 C-8.32013203 17.79190554 -7.39515685 15.66934507 -6.4375 13.5625 C-5.12084329 10.2994812 -4.42391604 7.47611149 -4 4 C-4.66 4 -5.32 4 -6 4 C-5.67 3.01 -5.34 2.02 -5 1 C-5 1.66 -5 2.32 -5 3 C-4.34 3 -3.68 3 -3 3 C-3 2.34 -3 1.68 -3 1 C-1 0 -1 0 0 0 Z " fill="#675AB1" transform="translate(369,271)"/>
<path d="M0 0 C0.928125 0.5259375 0.928125 0.5259375 1.875 1.0625 C4.07117281 2.31151158 4.07117281 2.31151158 6.75 1.125 C7.4925 0.75375 8.235 0.3825 9 0 C9 2.64 9 5.28 9 8 C12.153368 8.70074844 14.72724974 9 18 9 C17.67 11.64 17.34 14.28 17 17 C12.70366354 13.80408759 8.42917864 10.58067863 4.1875 7.3125 C3.45917969 6.75175781 2.73085938 6.19101563 1.98046875 5.61328125 C0.19910127 4.16218703 -1.4122893 2.65783042 -3 1 C-2.01 0.67 -1.02 0.34 0 0 Z " fill="#6CC1B2" transform="translate(301,152)"/>
<path d="M0 0 C0.66 0 1.32 0 2 0 C1.58216177 5.04704594 1.00953788 9.31107828 -1 14 C-1 15.32 -1 16.64 -1 18 C-0.34 18.33 0.32 18.66 1 19 C1.6328125 21.06640625 1.6328125 21.06640625 2.125 23.5625 C2.29257813 24.38878906 2.46015625 25.21507812 2.6328125 26.06640625 C2.75398437 26.70449219 2.87515625 27.34257812 3 28 C-1.74497025 22.43693143 -4.60284038 17.41364632 -5 10 C-4.06771055 6.03776982 -2.7753231 3.00660002 0 0 Z " fill="#6189B3" transform="translate(199,272)"/>
<path d="M0 0 C-2 2 -2 2 -5.375 3.875 C-9.54543532 6.21218146 -12.44771268 8.34313803 -14 13 C-14.06937062 15.22818441 -14.08457084 17.45834524 -14.0625 19.6875 C-14.04896484 21.45673828 -14.04896484 21.45673828 -14.03515625 23.26171875 C-14.02355469 24.16535156 -14.01195312 25.06898438 -14 26 C-13.34 26 -12.68 26 -12 26 C-11.34 27.32 -10.68 28.64 -10 30 C-11.875 29.875 -11.875 29.875 -14 29 C-15.1875 26.25 -15.1875 26.25 -16 23 C-16.20625 22.21625 -16.4125 21.4325 -16.625 20.625 C-17.13519616 17.05362687 -17.06113612 13.60703133 -17 10 C-16.34 10 -15.68 10 -15 10 C-14.773125 8.88625 -14.54625 7.7725 -14.3125 6.625 C-13 3 -13 3 -10.5 1.625 C-9.675 1.41875 -8.85 1.2125 -8 1 C-5.29120665 -0.35439668 -2.99066732 -0.06501451 0 0 Z " fill="#76C6B4" transform="translate(238,183)"/>
<path d="M0 0 C12.87 0 25.74 0 39 0 C39.495 0.99 39.495 0.99 40 2 C42.64 2 45.28 2 48 2 C48 2.99 48 3.98 48 5 C49.32 5.33 50.64 5.66 52 6 C48.10679283 7.29773572 46.8811526 6.31681963 43 5 C33.82437516 2.66904097 24.6977824 2.76388195 15.3125 2.875 C13.8209696 2.88505708 12.32943258 2.89417808 10.83789062 2.90234375 C7.22512026 2.92412456 3.61260407 2.9585015 0 3 C0 2.01 0 1.02 0 0 Z " fill="#77CEAE" transform="translate(228,138)"/>
<path d="M0 0 C-0.33 0.66 -0.66 1.32 -1 2 C-3.5625 2.625 -3.5625 2.625 -6 3 C-6 2.34 -6 1.68 -6 1 C-7.65 1.66 -9.3 2.32 -11 3 C-11 3.99 -11 4.98 -11 6 C-11.66 6 -12.32 6 -13 6 C-13 5.34 -13 4.68 -13 4 C-13.99 4.33 -14.98 4.66 -16 5 C-17.32 5 -18.64 5 -20 5 C-22.3139172 5.59866794 -22.3139172 5.59866794 -24.625 6.4375 C-25.78902344 6.83775391 -25.78902344 6.83775391 -26.9765625 7.24609375 C-29.02733276 7.96917046 -29.02733276 7.96917046 -31 9 C-31.66 8.34 -32.32 7.68 -33 7 C-31.68 6.67 -30.36 6.34 -29 6 C-29 5.34 -29 4.68 -29 4 C-18.89132565 0.51102765 -10.60970678 -0.5349432 0 0 Z " fill="#82E1B6" transform="translate(236,114)"/>
<path d="M0 0 C0.33 0 0.66 0 1 0 C1 11.55 1 23.1 1 35 C-0.32 34.67 -1.64 34.34 -3 34 C-2.79375 33.21625 -2.5875 32.4325 -2.375 31.625 C-2.25125 30.75875 -2.1275 29.8925 -2 29 C-2.66 28.34 -3.32 27.68 -4 27 C-3.67 26.67 -3.34 26.34 -3 26 C-2.91262355 24.14630389 -2.89301847 22.28932459 -2.90234375 20.43359375 C-2.90556641 19.30888672 -2.90878906 18.18417969 -2.91210938 17.02539062 C-2.92048828 15.84138672 -2.92886719 14.65738281 -2.9375 13.4375 C-2.94201172 12.24962891 -2.94652344 11.06175781 -2.95117188 9.83789062 C-2.96300325 6.89187774 -2.97948713 3.94596319 -3 1 C-2.01 1.33 -1.02 1.66 0 2 C0 1.34 0 0.68 0 0 Z " fill="#5AAAA7" transform="translate(151,221)"/>
<path d="M0 0 C0.33 0 0.66 0 1 0 C1 18.44444444 1 18.44444444 -0.66015625 24.78125 C-1.03266982 27.21329261 -0.73070087 28.6732946 0 31 C0.34060811 32.66519519 0.67558396 34.33157466 1 36 C0.01 35.67 -0.98 35.34 -2 35 C-2 34.34 -2 33.68 -2 33 C-2.66 32.67 -3.32 32.34 -4 32 C-3.6624176 20.97618855 -3.04292318 10.65980008 0 0 Z " fill="#74C2B5" transform="translate(126,205)"/>
<path d="M0 0 C0.33 0 0.66 0 1 0 C2.20312782 14.51882623 2.13366326 28.69910041 -1 43 C-1.33 43 -1.66 43 -2 43 C-2.19441368 40.7089095 -2.38033135 38.41709663 -2.5625 36.125 C-2.71912109 34.21074219 -2.71912109 34.21074219 -2.87890625 32.2578125 C-3 29 -3 29 -2 27 C-1.93003986 25.29297265 -1.91559846 23.58331997 -1.9375 21.875 C-1.94652344 20.96492188 -1.95554687 20.05484375 -1.96484375 19.1171875 C-1.97644531 18.41851562 -1.98804688 17.71984375 -2 17 C-1.67 17 -1.34 17 -1 17 C-0.67 11.39 -0.34 5.78 0 0 Z " fill="#7B88B9" transform="translate(373,222)"/>
<path d="M0 0 C-1.95405518 1.50587739 -3.91281284 3.00478644 -5.875 4.5 C-6.43058594 4.92925781 -6.98617188 5.35851562 -7.55859375 5.80078125 C-11.7734375 9 -11.7734375 9 -14 9 C-14 9.66 -14 10.32 -14 11 C-16.75 12.625 -16.75 12.625 -20 14 C-22.375 13.1875 -22.375 13.1875 -24 12 C-22.35 12 -20.7 12 -19 12 C-19.33 11.01 -19.66 10.02 -20 9 C-18.35 9 -16.7 9 -15 9 C-15 7.68 -15 6.36 -15 5 C-14.34 5 -13.68 5 -13 5 C-13 4.34 -13 3.68 -13 3 C-8.92005712 -0.77772489 -5.24520218 -1.46687858 0 0 Z " fill="#628EB4" transform="translate(279,241)"/>
<path d="M0 0 C1 3 1 3 0.3125 5.125 C-1.32846759 7.46923941 -2.25351666 7.50063939 -5 8 C-8.47917182 10.31944788 -9.29429766 12.26369964 -11 16 C-12.65 15.67 -14.3 15.34 -16 15 C-13.35304479 10.12402988 -6.208101 0 0 0 Z " fill="#81D3B6" transform="translate(218,161)"/>
<path d="M0 0 C4.08598172 2.1055314 6.01307407 4.06546656 8.25 8.0625 C8.75015625 8.94035156 9.2503125 9.81820313 9.765625 10.72265625 C10.53216075 12.13686619 11.28061599 13.56123197 12 15 C11.34 15.66 10.68 16.32 10 17 C9.443125 16.319375 8.88625 15.63875 8.3125 14.9375 C7.549375 14.298125 6.78625 13.65875 6 13 C3.29294488 13.14025199 3.29294488 13.14025199 1 14 C1.33 12.02 1.66 10.04 2 8 C1.34 7.67 0.68 7.34 0 7 C0.66 7 1.32 7 2 7 C1.34 4.69 0.68 2.38 0 0 Z " fill="#4970A7" transform="translate(216,271)"/>
<path d="M0 0 C0 0.33 0 0.66 0 1 C-7.92 1.495 -7.92 1.495 -16 2 C-16 1.34 -16 0.68 -16 0 C-17.84851563 0.10828125 -17.84851563 0.10828125 -19.734375 0.21875 C-28.83141429 0.73471795 -37.88400751 1.16376034 -47 1 C-47 0.67 -47 0.34 -47 0 C-30.78706111 -1.97804919 -16.22660618 -1.86589311 0 0 Z " fill="#A6E6C9" transform="translate(272,113)"/>
<path d="M0 0 C-2.60813593 3.20930201 -5.49224993 4.09081091 -9.375 5.3125 C-11.05722656 5.86357422 -11.05722656 5.86357422 -12.7734375 6.42578125 C-16.32815059 7.05839968 -17.85697628 6.66568486 -21 5 C-21 4.34 -21 3.68 -21 3 C-20.34 3 -19.68 3 -19 3 C-19 2.34 -19 1.68 -19 1 C-17.35 1 -15.7 1 -14 1 C-14 1.66 -14 2.32 -14 3 C-13.40832031 2.7834375 -12.81664062 2.566875 -12.20703125 2.34375 C-4.35852373 -0.42179262 -4.35852373 -0.42179262 0 0 Z " fill="#603AA2" transform="translate(295,353)"/>
<path d="M0 0 C0.33 0 0.66 0 1 0 C0.93983797 1.7717719 0.85100672 3.54258679 0.75 5.3125 C0.68039062 6.79169922 0.68039062 6.79169922 0.609375 8.30078125 C0 11 0 11 -1.78125 12.84375 C-5.30822341 14.68175023 -8.07031263 14.19648437 -12 14 C-12.33 13.01 -12.66 12.02 -13 11 C-12.13375 10.773125 -11.2675 10.54625 -10.375 10.3125 C-6.28304181 8.72118293 -4.13746278 7.06449852 -1 4 C-0.05563651 1.83468832 -0.05563651 1.83468832 0 0 Z " fill="#59A8AC" transform="translate(297,189)"/>
<path d="M0 0 C2.1875 0.3125 2.1875 0.3125 4 1 C4 2.32 4 3.64 4 5 C4.66 5 5.32 5 6 5 C6.33 4.01 6.66 3.02 7 2 C7.99 2.99 8.98 3.98 10 5 C10.33 4.34 10.66 3.68 11 3 C11.66 3.33 12.32 3.66 13 4 C13 4.66 13 5.32 13 6 C14.32 6 15.64 6 17 6 C17 6.66 17 7.32 17 8 C10.93107371 8.25287193 5.83799592 7.69832609 0 6 C0 5.34 0 4.68 0 4 C-0.99 3.67 -1.98 3.34 -3 3 C-1.75 1.4375 -1.75 1.4375 0 0 Z " fill="#593FA5" transform="translate(210,352)"/>
<path d="M0 0 C1.44010481 0.25662245 2.8770687 0.53090821 4.3125 0.8125 C5.11300781 0.96332031 5.91351563 1.11414063 6.73828125 1.26953125 C9.23445587 2.07572236 10.32422106 3.02052002 12 5 C11.67 5.33 11.34 5.66 11 6 C11.66 6.66 12.32 7.32 13 8 C5.61517976 7.24900133 5.61517976 7.24900133 2.375 5.9375 C-0.52453771 4.79294564 -2.91105953 4.85632835 -6 5 C-6 4.34 -6 3.68 -6 3 C-4.02 2.67 -2.04 2.34 0 2 C0 1.34 0 0.68 0 0 Z " fill="#4B3EA1" transform="translate(187,344)"/>
<path d="M0 0 C1.32 0 2.64 0 4 0 C3.34 1.32 2.68 2.64 2 4 C1.67 3.67 1.34 3.34 1 3 C0.01 4.485 0.01 4.485 -1 6 C-2.31387169 7.35251497 -3.64426252 8.68945377 -5 10 C-4.67 10.66 -4.34 11.32 -4 12 C-4.99 12.33 -5.98 12.66 -7 13 C-8.37195574 14.29355827 -9.71182656 15.62298702 -11 17 C-11.86616491 14.589802 -12.1663451 13.42372482 -11.21484375 11 C-8.28320601 6.40979044 -5.741029 3.69376648 -1 1 C-0.67 0.67 -0.34 0.34 0 0 Z " fill="#5250AD" transform="translate(340,280)"/>
<path d="M0 0 C2.3125 -0.25 2.3125 -0.25 5 0 C6.97610386 2.04424538 8 3.1176825 8 6 C8.66 6 9.32 6 10 6 C11.32 8.31 12.64 10.62 14 13 C11.69 13 9.38 13 7 13 C7 10.36 7 7.72 7 5 C4.36 5.33 1.72 5.66 -1 6 C-1.33 5.34 -1.66 4.68 -2 4 C-1.0625 1.875 -1.0625 1.875 0 0 Z " fill="#79BAB5" transform="translate(339,154)"/>
<path d="M0 0 C0.66 0 1.32 0 2 0 C2 0.66 2 1.32 2 2 C2.61875 2.28875 3.2375 2.5775 3.875 2.875 C6 4 6 4 8 6 C7.625 9.125 7.625 9.125 7 12 C5.35 12 3.7 12 2 12 C1.01 8.37 0.02 4.74 -1 1 C-0.67 0.67 -0.34 0.34 0 0 Z " fill="#5BA1B2" transform="translate(128,271)"/>
<path d="M0 0 C1.98 0.99 1.98 0.99 4 2 C2.68 1.67 1.36 1.34 0 1 C0 0.67 0 0.34 0 0 Z M0 2 C0.33 2.66 0.66 3.32 1 4 C0.360625 4.5775 -0.27875 5.155 -0.9375 5.75 C-3.13541667 7.75 -3.13541667 7.75 -3.375 10 C-4.43060252 13.37792806 -7.01592007 14.38859684 -10 16 C-10.99 15.67 -11.98 15.34 -13 15 C-6.07061503 4.07289294 -6.07061503 4.07289294 0 2 Z " fill="#7EDAB2" transform="translate(155,154)"/>
<path d="M0 0 C0.86044922 0.32484375 0.86044922 0.32484375 1.73828125 0.65625 C1.22265625 1.06875 0.70703125 1.48125 0.17578125 1.90625 C-0.29859375 2.48375 -0.77296875 3.06125 -1.26171875 3.65625 C-1.03414144 5.81924211 -1.03414144 5.81924211 -0.26171875 7.65625 C-1.25171875 8.15125 -1.25171875 8.15125 -2.26171875 8.65625 C-2.26171875 7.99625 -2.26171875 7.33625 -2.26171875 6.65625 C-6.07584877 7.8240766 -6.07584877 7.8240766 -8.57421875 10.78125 C-8.80109375 11.4 -9.02796875 12.01875 -9.26171875 12.65625 C-9.92171875 12.65625 -10.58171875 12.65625 -11.26171875 12.65625 C-11.26171875 8.81263438 -11.22297948 6.69010021 -8.5546875 3.8203125 C-3.12085902 -0.47432745 -3.12085902 -0.47432745 0 0 Z " fill="#86DEB8" transform="translate(176.26171875,135.34375)"/>
<path d="M0 0 C3.20285942 0.21352396 5.81448135 1.07195818 8.8125 2.1875 C8.8125 3.8375 8.8125 5.4875 8.8125 7.1875 C7.1625 7.1875 5.5125 7.1875 3.8125 7.1875 C3.8125 6.5275 3.8125 5.8675 3.8125 5.1875 C1.8325 5.1875 -0.1475 5.1875 -2.1875 5.1875 C-2.75 3.25 -2.75 3.25 -3.1875 1.1875 C-2.1875 0.1875 -2.1875 0.1875 0 0 Z " fill="#4848A6" transform="translate(231.1875,311.8125)"/>
<path d="M0 0 C3.6875 0.875 3.6875 0.875 7 2 C6.67 3.65 6.34 5.3 6 7 C3.36 7.33 0.72 7.66 -2 8 C-1.67 6.68 -1.34 5.36 -1 4 C-1.66 4 -2.32 4 -3 4 C-3 3.34 -3 2.68 -3 2 C-2.01 1.34 -1.02 0.68 0 0 Z " fill="#5A56AC" transform="translate(157,352)"/>
<path d="M0 0 C2.29013653 3.4352048 2.17842973 4.985331 2 9 C2.66 9 3.32 9 4 9 C3.67 9.99 3.34 10.98 3 12 C-1.32239956 8.65996398 -4.17477391 5.67248931 -7 1 C-3.535 0.505 -3.535 0.505 0 0 Z " fill="#70B6B7" transform="translate(325,168)"/>
<path d="M0 0 C0.33 0 0.66 0 1 0 C1.66 2.64 2.32 5.28 3 8 C5.046875 8.51171875 7.09375 9.0234375 9.140625 9.53515625 C11.09375 10.0234375 13.046875 10.51171875 15 11 C11.2626144 13.4915904 9.42668417 13.45793285 5 13 C2.0625 11.5625 2.0625 11.5625 0 9 C-0.40891377 5.95411663 -0.2935429 3.05284611 0 0 Z " fill="#7571B2" transform="translate(143,349)"/>
<path d="M0 0 C0.66 0.99 1.32 1.98 2 3 C0.58426179 6.39187279 -1.04230966 8.09697541 -4 10.25 C-4.70125 10.77078125 -5.4025 11.2915625 -6.125 11.828125 C-8 13 -8 13 -10 13 C-10.33 11.35 -10.66 9.7 -11 8 C-7 8 -7 8 -5 9 C-4.67 7.68 -4.34 6.36 -4 5 C-3.34 5 -2.68 5 -2 5 C-1.34 3.35 -0.68 1.7 0 0 Z " fill="#6845AB" transform="translate(325,331)"/>
<path d="M0 0 C-2.36292656 2.52588702 -3.66462511 3.88820837 -7 5 C-8.01187895 6.65948148 -9.0126546 8.32580562 -10 10 C-10.66 10 -11.32 10 -12 10 C-12.66 8.68 -13.32 7.36 -14 6 C-13.34 6 -12.68 6 -12 6 C-12 5.34 -12 4.68 -12 4 C-4.71428571 -0.57142857 -4.71428571 -0.57142857 0 0 Z " fill="#604CA3" transform="translate(296,325)"/>
<path d="M0 0 C0.99 0.33 1.98 0.66 3 1 C2.34 4.3 1.68 7.6 1 11 C-0.32 11.33 -1.64 11.66 -3 12 C-4.125 8.25 -4.125 8.25 -3 6 C-2.855625 5.154375 -2.71125 4.30875 -2.5625 3.4375 C-2.376875 2.633125 -2.19125 1.82875 -2 1 C-1.34 0.67 -0.68 0.34 0 0 Z " fill="#4C28A7" transform="translate(340,312)"/>
<path d="M0 0 C0.33 0 0.66 0 1 0 C2.64825065 8.85934724 2.64825065 18.14065276 1 27 C-0.98974803 23.69959882 -1.18869828 21.39656905 -0.9765625 17.578125 C-0.925 16.55332031 -0.8734375 15.52851563 -0.8203125 14.47265625 C-0.75585938 13.40917969 -0.69140625 12.34570312 -0.625 11.25 C-0.56828125 10.17105469 -0.5115625 9.09210938 -0.453125 7.98046875 C-0.31184116 5.31962301 -0.16044734 2.65974769 0 0 Z " fill="#828AC1" transform="translate(300,258)"/>
<path d="M0 0 C1.06816252 4.00560946 2.00386319 7.90612042 1 12 C-1.05116546 14.43063108 -3.36953113 16.22845974 -6 18 C-6 14.03579038 -4.49299692 10.91385068 -3 7.3125 C-2.71382813 6.61060547 -2.42765625 5.90871094 -2.1328125 5.18554688 C-1.42651923 3.45512837 -0.71386863 1.72730714 0 0 Z " fill="#7478B6" transform="translate(341,267)"/>
<path d="M0 0 C1.12921875 0.09087891 1.12921875 0.09087891 2.28125 0.18359375 C11.18237378 0.8857455 20.08779539 1.46229318 29 2 C29 2.33 29 2.66 29 3 C24.72918086 3.02897435 20.45838691 3.04678996 16.1875 3.0625 C14.36508789 3.07506836 14.36508789 3.07506836 12.50585938 3.08789062 C10.76079102 3.09272461 10.76079102 3.09272461 8.98046875 3.09765625 C7.90692139 3.10289307 6.83337402 3.10812988 5.72729492 3.11352539 C3 3 3 3 0 2 C0 1.34 0 0.68 0 0 Z " fill="#4A3596" transform="translate(233,334)"/>
<path d="M0 0 C0 0.66 0 1.32 0 2 C0.928125 2.103125 1.85625 2.20625 2.8125 2.3125 C6.02464205 3.00531495 7.11930017 3.3879169 9 6 C9 6.66 9 7.32 9 8 C4.78224268 6.64474464 0.70578678 5.09799886 -3.375 3.375 C-4.43460937 2.92898437 -5.49421875 2.48296875 -6.5859375 2.0234375 C-7.38257813 1.68570313 -8.17921875 1.34796875 -9 1 C-5.52452927 -0.94566951 -3.87493656 -1.07637127 0 0 Z " fill="#88D2BF" transform="translate(289,145)"/>
<path d="M0 0 C7.59173606 -1.20777619 12.80587927 3.01297976 19 7 C17.37890625 7.68359375 17.37890625 7.68359375 15 8 C12.08984375 6.78515625 12.08984375 6.78515625 8.9375 5.0625 C4.70346198 2.6355777 4.70346198 2.6355777 0 2 C0 1.34 0 0.68 0 0 Z " fill="#88D5BD" transform="translate(296,123)"/>
<path d="M0 0 C2.97 0.495 2.97 0.495 6 1 C6.12375 1.639375 6.2475 2.27875 6.375 2.9375 C6.684375 3.9584375 6.684375 3.9584375 7 5 C7.66 5.33 8.32 5.66 9 6 C7.1875 7.5625 7.1875 7.5625 5 9 C4.01 8.67 3.02 8.34 2 8 C1.26953125 6.15234375 1.26953125 6.15234375 0.8125 3.9375 C0.65394531 3.20402344 0.49539062 2.47054688 0.33203125 1.71484375 C0.22246094 1.14894531 0.11289063 0.58304687 0 0 Z " fill="#4D6AAA" transform="translate(151,316)"/>
<path d="M0 0 C1.32 0.33 2.64 0.66 4 1 C4 1.99 4 2.98 4 4 C4.66 4.33 5.32 4.66 6 5 C5.34 5 4.68 5 4 5 C4.01160156 5.59167969 4.02320313 6.18335938 4.03515625 6.79296875 C4.08322386 11.00231785 4.06006883 14.8922333 3 19 C2.01 19 1.02 19 0 19 C0 19.66 0 20.32 0 21 C-0.66 20.67 -1.32 20.34 -2 20 C-1.34 18.989375 -0.68 17.97875 0 16.9375 C2.15287858 13.15087669 2.47862603 10.38740526 2 6 C1.08885464 2.67813829 1.08885464 2.67813829 0 0 Z " fill="#7084B5" transform="translate(271,263)"/>
<path d="M0 0 C1.84765625 0.33984375 1.84765625 0.33984375 4.0625 0.9375 C5.16271484 1.22947266 5.16271484 1.22947266 6.28515625 1.52734375 C7.13400391 1.76130859 7.13400391 1.76130859 8 2 C8 2.66 8 3.32 8 4 C8.99 4.33 9.98 4.66 11 5 C5.10304872 6.70701221 0.58011183 4.95193635 -5 3 C-4.360625 2.690625 -3.72125 2.38125 -3.0625 2.0625 C-1.06389179 1.1654837 -1.06389179 1.1654837 0 0 Z " fill="#6C9DBE" transform="translate(237,244)"/>
<path d="M0 0 C0.33 0 0.66 0 1 0 C0.67 8.91 0.34 17.82 0 27 C-0.33 27 -0.66 27 -1 27 C-1.06058594 25.87722656 -1.12117187 24.75445312 -1.18359375 23.59765625 C-1.60294982 16.03659035 -2.04339834 8.5161559 -3 1 C-2.01 1.33 -1.02 1.66 0 2 C0 1.34 0 0.68 0 0 Z " fill="#8DCAC6" transform="translate(151,221)"/>
<path d="M0 0 C3.96 0 7.92 0 12 0 C12 1.65 12 3.3 12 5 C8.8125 5.3125 8.8125 5.3125 5 5 C2.0625 2.5 2.0625 2.5 0 0 Z " fill="#69D8AA" transform="translate(260,114)"/>
<path d="M0 0 C-0.33 0.66 -0.66 1.32 -1 2 C-0.34 2.33 0.32 2.66 1 3 C0.67 4.32 0.34 5.64 0 7 C0.99 7.33 1.98 7.66 3 8 C2.67 8.66 2.34 9.32 2 10 C0.35 9.67 -1.3 9.34 -3 9 C-3.309375 7.88625 -3.61875 6.7725 -3.9375 5.625 C-4.82326483 2.2054845 -4.82326483 2.2054845 -6 0 C-3.50907189 -1.24546405 -2.58919267 -0.7767578 0 0 Z M-2 2 C-1 4 -1 4 -1 4 Z " fill="#4A71AB" transform="translate(151,305)"/>
<path d="M0 0 C1.32 0 2.64 0 4 0 C2.58632741 4.34671293 1.02739359 8.6135639 -0.625 12.875 C-1.07101563 14.02742187 -1.51703125 15.17984375 -1.9765625 16.3671875 C-2.31429687 17.23601562 -2.65203125 18.10484375 -3 19 C-3.33 19 -3.66 19 -4 19 C-4.125 12.25 -4.125 12.25 -3 10 C-2.34 10 -1.68 10 -1 10 C-1.020625 9.0925 -1.04125 8.185 -1.0625 7.25 C-1.0110245 4.57327412 -0.7784983 2.53011948 0 0 Z " fill="#84D3B6" transform="translate(158,192)"/>
<path d="M0 0 C3.32494886 2.98098864 5.42411818 5.79764848 7 10 C6.1875 12.375 6.1875 12.375 5 14 C4.67 12.35 4.34 10.7 4 9 C2.02463255 9.34786708 2.02463255 9.34786708 0 10 C-0.33 10.66 -0.66 11.32 -1 12 C-0.9278125 11.30132812 -0.855625 10.60265625 -0.78125 9.8828125 C-0.6884375 8.97273437 -0.595625 8.06265625 -0.5 7.125 C-0.4071875 6.22007812 -0.314375 5.31515625 -0.21875 4.3828125 C0.03047295 2.06686789 0.03047295 2.06686789 0 0 Z " fill="#6CAEB8" transform="translate(353,168)"/>
<path d="M0 0 C0.66 0.33 1.32 0.66 2 1 C1.505 1.433125 1.01 1.86625 0.5 2.3125 C-1.33218192 3.99740483 -1.33218192 3.99740483 -1 7 C-1 7.66 -1 8.32 -1 9 C-1.78375 8.979375 -2.5675 8.95875 -3.375 8.9375 C-5.98114961 8.81315937 -5.98114961 8.81315937 -8 10 C-8.66 9.34 -9.32 8.68 -10 8 C-6.7 5.36 -3.4 2.72 0 0 Z " fill="#638AB8" transform="translate(282,246)"/>
<path d="M0 0 C0.95619733 3.99795892 1.1039592 7.70803922 1.0625 11.8125 C1.05347656 12.97394531 1.04445313 14.13539063 1.03515625 15.33203125 C1.02355469 16.21246094 1.01195312 17.09289062 1 18 C-0.32 17.01 -1.64 16.02 -3 15 C-2.34 15 -1.68 15 -1 15 C-1 12.69 -1 10.38 -1 8 C-1.99 8.495 -1.99 8.495 -3 9 C-3 6.36 -3 3.72 -3 1 C-1 0 -1 0 0 0 Z " fill="#4C6FAB" transform="translate(372,216)"/>
<path d="M0 0 C2.18975773 3.28463659 2.99806563 6.20696275 4 10 C3.01 10 2.02 10 1 10 C0.67 9.34 0.34 8.68 0 8 C-0.33 8.66 -0.66 9.32 -1 10 C-1.66 10 -2.32 10 -3 10 C-2.34 8.35 -1.68 6.7 -1 5 C-1.99 4.67 -2.98 4.34 -4 4 C-3.67 3.01 -3.34 2.02 -3 1 C-2.01 0.67 -1.02 0.34 0 0 Z " fill="#6398B5" transform="translate(364,188)"/>
<path d="M0 0 C0.75732422 0.00644531 1.51464844 0.01289063 2.29492188 0.01953125 C3.08060547 0.03628906 3.86628906 0.05304688 4.67578125 0.0703125 C5.47306641 0.07933594 6.27035156 0.08835938 7.09179688 0.09765625 C9.05742025 0.12119665 11.022889 0.15706703 12.98828125 0.1953125 C12.98828125 0.8553125 12.98828125 1.5153125 12.98828125 2.1953125 C13.64828125 2.1953125 14.30828125 2.1953125 14.98828125 2.1953125 C14.98828125 2.8553125 14.98828125 3.5153125 14.98828125 4.1953125 C14.23804688 4.0509375 13.4878125 3.9065625 12.71484375 3.7578125 C6.05341573 2.54969457 -0.24543756 1.92585882 -7.01171875 2.1953125 C-3.96490814 0.16410543 -3.41053551 -0.05128625 0 0 Z " fill="#83C8BC" transform="translate(248.01171875,180.8046875)"/>
<path d="M0 0 C0.33 0 0.66 0 1 0 C0.45144652 4.571279 -0.41744803 8.67435795 -2 13 C-2.99 13 -3.98 13 -5 13 C-5 14.65 -5 16.3 -5 18 C-5.33 18 -5.66 18 -6 18 C-6.36020428 13.00216563 -5.34389935 10.01981128 -3 5.625 C-2.443125 4.56539062 -1.88625 3.50578125 -1.3125 2.4140625 C-0.879375 1.61742187 -0.44625 0.82078125 0 0 Z " fill="#8CD5C0" transform="translate(201,176)"/>
<path d="M0 0 C1.11375 0.2475 1.11375 0.2475 2.25 0.5 C5.19006578 1.11925696 5.19006578 1.11925696 9 1 C8.67 3.64 8.34 6.28 8 9 C1.42857143 3.85714286 1.42857143 3.85714286 0 0 Z " fill="#64BBB3" transform="translate(310,160)"/>
<path d="M0 0 C4.83628305 0.99043705 9.47618873 1.95698846 14 4 C14 4.33 14 4.66 14 5 C9.27713549 6.12449155 6.502083 5.73944116 2 4 C1.34 4 0.68 4 0 4 C0 2.68 0 1.36 0 0 Z " fill="#615AA8" transform="translate(217,330)"/>
<path d="M0 0 C0.66 0.66 1.32 1.32 2 2 C1.835 2.7425 1.67 3.485 1.5 4.25 C0.75620647 7.05915016 0.75620647 7.05915016 2 9.875 C3.19976596 13.62426863 2.76363168 16.18184159 2 20 C0.37522189 17.03837914 -0.51695886 14.30733073 -1.1875 11 C-1.36667969 10.154375 -1.54585938 9.30875 -1.73046875 8.4375 C-2.09616212 5.13035995 -1.47174342 2.94348684 0 0 Z " fill="#7CB7BA" transform="translate(125,251)"/>
<path d="M0 0 C0.66 0.33 1.32 0.66 2 1 C2 1.99 2 2.98 2 4 C6.455 4.99 6.455 4.99 11 6 C11.33 7.32 11.66 8.64 12 10 C6.19657726 8.51194289 1.82409121 5.40902445 -3 2 C-2.01 1.34 -1.02 0.68 0 0 Z " fill="#6DA9B4" transform="translate(212,233)"/>
<path d="M0 0 C0.99 0 1.98 0 3 0 C3 1.65 3 3.3 3 5 C2.01 5.33 1.02 5.66 0 6 C-1.22445284 7.62948064 -1.22445284 7.62948064 -2.1875 9.5625 C-2.785625 10.696875 -3.38375 11.83125 -4 13 C-4.66 13 -5.32 13 -6 13 C-4.58707905 8.1725201 -2.57025846 4.2837641 0 0 Z " fill="#7DD7B1" transform="translate(141,170)"/>
<path d="M0 0 C0.99 0 1.98 0 3 0 C3.66 1.32 4.32 2.64 5 4 C4.01 4 3.02 4 2 4 C2 4.66 2 5.32 2 6 C1.34 6 0.68 6 0 6 C-0.33 7.65 -0.66 9.3 -1 11 C-1.66 10.67 -2.32 10.34 -3 10 C-3 9.34 -3 8.68 -3 8 C-3.66 7.67 -4.32 7.34 -5 7 C-4.01 6.67 -3.02 6.34 -2 6 C-0.77479736 2.99152582 -0.77479736 2.99152582 0 0 Z " fill="#4F29A3" transform="translate(332,322)"/>
<path d="M0 0 C0.85609863 0.23771118 0.85609863 0.23771118 1.72949219 0.48022461 C3.97210188 0.99361343 6.03317915 1.20165896 8.328125 1.31640625 C9.52695313 1.37924805 9.52695313 1.37924805 10.75 1.44335938 C11.9875 1.50233398 11.9875 1.50233398 13.25 1.5625 C14.09046875 1.60568359 14.9309375 1.64886719 15.796875 1.69335938 C17.86440671 1.79908543 19.93218281 1.90001295 22 2 C22 2.33 22 2.66 22 3 C17.05 3 12.1 3 7 3 C6.67 3.99 6.34 4.98 6 6 C5.67 5.34 5.34 4.68 5 4 C3.68 4 2.36 4 1 4 C0.67 2.68 0.34 1.36 0 0 Z " fill="#8593C1" transform="translate(233,289)"/>
<path d="M0 0 C0.33 0 0.66 0 1 0 C1.0501123 0.55985596 1.10022461 1.11971191 1.15185547 1.6965332 C1.38413587 4.23607956 1.62941785 6.77420691 1.875 9.3125 C1.95363281 10.19357422 2.03226563 11.07464844 2.11328125 11.98242188 C2.19707031 12.82998047 2.28085938 13.67753906 2.3671875 14.55078125 C2.44050293 15.33106689 2.51381836 16.11135254 2.58935547 16.9152832 C2.91970211 19.29494233 2.91970211 19.29494233 5 22 C4.34 23.32 3.68 24.64 3 26 C0.29031963 17.19353881 -0.36706108 9.19012194 0 0 Z " fill="#90CEC6" transform="translate(194,194)"/>
<path d="M0 0 C0.99 0.33 1.98 0.66 3 1 C3 1.66 3 2.32 3 3 C3.66 3 4.32 3 5 3 C5 3.66 5 4.32 5 5 C5.66 5 6.32 5 7 5 C7.66 6.65 8.32 8.3 9 10 C9.66 10 10.32 10 11 10 C11.33 11.32 11.66 12.64 12 14 C10 14 10 14 8.6328125 12.64453125 C8.13523437 12.03996094 7.63765625 11.43539062 7.125 10.8125 C6.5990625 10.17570313 6.073125 9.53890625 5.53125 8.8828125 C5.0259375 8.26148438 4.520625 7.64015625 4 7 C3.21625 6.071875 2.4325 5.14375 1.625 4.1875 C0 2 0 2 0 0 Z " fill="#85C8BE" transform="translate(284,165)"/>
<path d="M0 0 C-3 2 -3 2 -6.625 2.5 C-7.73875 2.665 -8.8525 2.83 -10 3 C-10.33 3.66 -10.66 4.32 -11 5 C-11 4.34 -11 3.68 -11 3 C-11.7425 3.350625 -12.485 3.70125 -13.25 4.0625 C-16.21122875 5.0720098 -17.12062561 4.87980884 -20 4 C-13.058915 1.09382609 -7.54290017 -0.4946164 0 0 Z " fill="#96DBC2" transform="translate(242,154)"/>
<path d="M0 0 C2.0625 0.4375 2.0625 0.4375 4 1 C3.01 1 2.02 1 1 1 C1.66 2.98 2.32 4.96 3 7 C-3.5 10 -3.5 10 -8 10 C-8 9.34 -8 8.68 -8 8 C-4.535 7.505 -4.535 7.505 -1 7 C-1.020625 6.030625 -1.04125 5.06125 -1.0625 4.0625 C-1 1 -1 1 0 0 Z " fill="#4F48A7" transform="translate(178,344)"/>
<path d="M0 0 C0.66 1.32 1.32 2.64 2 4 C0.35 3.67 -1.3 3.34 -3 3 C-3 4.98 -3 6.96 -3 9 C-4.65 9 -6.3 9 -8 9 C-6.125 3.25 -6.125 3.25 -5 1 C-2 0 -2 0 0 0 Z " fill="#4F22A7" transform="translate(318,336)"/>
<path d="M0 0 C0.66 0 1.32 0 2 0 C0.49776416 4.20626034 -2.28550034 5.73900021 -6 8 C-6.12375 7.030625 -6.2475 6.06125 -6.375 5.0625 C-6.58125 4.051875 -6.7875 3.04125 -7 2 C-7.66 1.67 -8.32 1.34 -9 1 C-6.03 1.33 -3.06 1.66 0 2 C0 1.34 0 0.68 0 0 Z " fill="#605AB1" transform="translate(284,305)"/>
<path d="M0 0 C0.66 0 1.32 0 2 0 C1.9132428 2.62664903 1.80642019 5.24978082 1.6875 7.875 C1.66494141 8.62136719 1.64238281 9.36773437 1.61914062 10.13671875 C1.52188055 12.099604 1.26957706 14.05328322 1 16 C0.01 16.66 -0.98 17.32 -2 18 C-1.48758893 11.97099313 -0.930215 5.97995357 0 0 Z " fill="#6B75AD" transform="translate(345,248)"/>
<path d="M0 0 C0.99 0.66 1.98 1.32 3 2 C3.1875 4.625 3.1875 4.625 3 7 C1.02 7.33 -0.96 7.66 -3 8 C-3.36923077 3.44615385 -3.36923077 3.44615385 -1.5 1.1875 C-1.005 0.795625 -0.51 0.40375 0 0 Z " fill="#4D38A9" transform="translate(355,293)"/>
<path d="M0 0 C0.66 0 1.32 0 2 0 C3 3 3 3 2.3125 5.125 C1 7 1 7 -0.9375 7.75 C-3 8 -3 8 -6 8 C-5.04956626 6.66102417 -4.08940853 5.32894573 -3.125 4 C-2.59132812 3.2575 -2.05765625 2.515 -1.5078125 1.75 C-1.01023438 1.1725 -0.51265625 0.595 0 0 Z " fill="#70D1AF" transform="translate(216,161)"/>
<path d="M0 0 C5.26170694 1.41167747 8.72171358 3.74850232 13 7 C10 8 10 8 8.02734375 7.1875 C7.33769531 6.795625 6.64804687 6.40375 5.9375 6 C3.91563601 4.80965456 3.91563601 4.80965456 2 4 C1.01 4.495 1.01 4.495 0 5 C0 3.35 0 1.7 0 0 Z " fill="#7ACBB4" transform="translate(312,130)"/>
<path d="M0 0 C0.66 0.33 1.32 0.66 2 1 C0.88333826 4.34998521 0.25305075 4.79340222 -2.5625 6.6875 C-3.20316406 7.12449219 -3.84382813 7.56148438 -4.50390625 8.01171875 C-4.99761719 8.33785156 -5.49132812 8.66398437 -6 9 C-6.66 8.67 -7.32 8.34 -8 8 C-8 7.34 -8 6.68 -8 6 C-6.25 4.4921875 -6.25 4.4921875 -4 2.875 C-3.2575 2.33617187 -2.515 1.79734375 -1.75 1.2421875 C-1.1725 0.83226562 -0.595 0.42234375 0 0 Z " fill="#7164B5" transform="translate(317,307)"/>
<path d="M0 0 C-0.875 7.75 -0.875 7.75 -2 10 C-2.66 10 -3.32 10 -4 10 C-4 8.02 -4 6.04 -4 4 C-4.66 4 -5.32 4 -6 4 C-5.67 3.01 -5.34 2.02 -5 1 C-5 1.66 -5 2.32 -5 3 C-4.34 3 -3.68 3 -3 3 C-3 2.34 -3 1.68 -3 1 C-1 0 -1 0 0 0 Z " fill="#615DAC" transform="translate(369,271)"/>
<path d="M0 0 C3.1043078 3.1043078 2.84736884 6.74020297 3 11 C2.81692817 13.39736919 2.45328007 15.63287075 2 18 C-0.45391569 14.31912647 -0.22802759 11.55644412 -0.125 7.3125 C-0.11597656 6.61060547 -0.10695313 5.90871094 -0.09765625 5.18554688 C-0.07413704 3.45688475 -0.03826713 1.72839855 0 0 Z " fill="#60A8A5" transform="translate(123,238)"/>
<path d="M0 0 C2.875 -0.1875 2.875 -0.1875 6 0 C6.66 0.99 7.32 1.98 8 3 C11.06556598 3.73343428 11.06556598 3.73343428 14 4 C14 4.66 14 5.32 14 6 C12.39536551 5.68991116 10.79130769 5.37683713 9.1875 5.0625 C8.29417969 4.88847656 7.40085938 4.71445312 6.48046875 4.53515625 C4 4 4 4 1 3 C0.67 2.01 0.34 1.02 0 0 Z " fill="#696BAC" transform="translate(221,313)"/>
<path d="M0 0 C2.64 0 5.28 0 8 0 C8 0.66 8 1.32 8 2 C6.2984375 2.680625 6.2984375 2.680625 4.5625 3.375 C0.95278308 4.57095806 0.95278308 4.57095806 0 7 C-0.66 6.67 -1.32 6.34 -2 6 C-1.49396008 3.83125748 -1.00016187 2.00032373 0 0 Z " fill="#4B2FA3" transform="translate(346,304)"/>
<path d="M0 0 C2.4375 0.875 2.4375 0.875 4.4375 4.875 C1.1375 4.545 -2.1625 4.215 -5.5625 3.875 C-5.5625 3.215 -5.5625 2.555 -5.5625 1.875 C-2.5625 -0.125 -2.5625 -0.125 0 0 Z " fill="#7896B8" transform="translate(290.5625,242.125)"/>
<path d="M0 0 C0.99 0.33 1.98 0.66 3 1 C2.67 2.65 2.34 4.3 2 6 C-0.31 6.33 -2.62 6.66 -5 7 C-5 6.01 -5 5.02 -5 4 C-3.35 3.34 -1.7 2.68 0 2 C0 1.34 0 0.68 0 0 Z " fill="#4984B2" transform="translate(277,234)"/>
<path d="M0 0 C0.66 0 1.32 0 2 0 C2 0.99 2 1.98 2 3 C2.99 3 3.98 3 5 3 C5.69584017 7.02040985 6.1700097 10.08263419 5 14 C4.16235732 12.04350603 3.33000941 10.08474444 2.5 8.125 C2.0359375 7.03445312 1.571875 5.94390625 1.09375 4.8203125 C0 2 0 2 0 0 Z " fill="#79ADC3" transform="translate(335,192)"/>
<path d="M0 0 C2.81645906 3.18382329 3.72317437 5.75534029 4 10 C3.34 10.66 2.68 11.32 2 12 C0.68 10.02 -0.64 8.04 -2 6 C-1.34 6 -0.68 6 0 6 C0 4.02 0 2.04 0 0 Z " fill="#6D8AB9" transform="translate(296,248)"/>
<path d="M0 0 C0.99 0.33 1.98 0.66 3 1 C3.16682272 5.92127034 3.24828052 9.50343896 1 14 C0.06380187 10.84493858 -0.1057123 8.03413498 -0.0625 4.75 C-0.05347656 3.85796875 -0.04445313 2.9659375 -0.03515625 2.046875 C-0.02355469 1.37140625 -0.01195312 0.6959375 0 0 Z " fill="#82BABE" transform="translate(297,185)"/>
<path d="M0 0 C7.09434233 -0.09733092 13.98194143 -0.10087193 21 1 C21 1.33 21 1.66 21 2 C17.04 2 13.08 2 9 2 C8.67 2.66 8.34 3.32 8 4 C7.67 3.34 7.34 2.68 7 2 C4.67843403 1.59270772 2.3431213 1.25561323 0 1 C0 0.67 0 0.34 0 0 Z " fill="#9DE0C6" transform="translate(242,153)"/>
<path d="M0 0 C0.66 0.33 1.32 0.66 2 1 C1.34 2.98 0.68 4.96 0 7 C-2.31 7.33 -4.62 7.66 -7 8 C-6.02133662 6.85373678 -5.04205413 5.70800212 -4.0625 4.5625 C-3.51722656 3.92441406 -2.97195312 3.28632813 -2.41015625 2.62890625 C-1.63204305 1.73008851 -0.84063472 0.84063472 0 0 Z " fill="#94E1BF" transform="translate(164,143)"/>
<path d="M0 0 C1.65 1.32 3.3 2.64 5 4 C3.68 4.33 2.36 4.66 1 5 C1 5.66 1 6.32 1 7 C-0.65 7 -2.3 7 -4 7 C-3.67 5.35 -3.34 3.7 -3 2 C-2.34 2 -1.68 2 -1 2 C-0.67 1.34 -0.34 0.68 0 0 Z " fill="#4A7CAB" transform="translate(259,246)"/>
<path d="M0 0 C2.64 0.33 5.28 0.66 8 1 C8 1.66 8 2.32 8 3 C7.34 3 6.68 3 6 3 C5.67 3.66 5.34 4.32 5 5 C5 4.34 5 3.68 5 3 C4.01 3 3.02 3 2 3 C2 3.66 2 4.32 2 5 C1.34 4.67 0.68 4.34 0 4 C0 2.68 0 1.36 0 0 Z " fill="#5EA6AF" transform="translate(239,219)"/>
<path d="M0 0 C0.99 0.99 1.98 1.98 3 3 C1 5 1 5 -1.1640625 5.1953125 C-2.38222656 5.16050781 -2.38222656 5.16050781 -3.625 5.125 C-4.44226563 5.10695313 -5.25953125 5.08890625 -6.1015625 5.0703125 C-6.72804687 5.04710937 -7.35453125 5.02390625 -8 5 C-7.67 4.34 -7.34 3.68 -7 3 C-5.68 3 -4.36 3 -3 3 C-2.67 2.34 -2.34 1.68 -2 1 C-1.34 0.67 -0.68 0.34 0 0 Z " fill="#453C99" transform="translate(259,314)"/>
<path d="M0 0 C1.32 0 2.64 0 4 0 C4 0.66 4 1.32 4 2 C4.66 2 5.32 2 6 2 C5.67 3.32 5.34 4.64 5 6 C3.35 5.67 1.7 5.34 0 5 C0 3.35 0 1.7 0 0 Z " fill="#5F74B2" transform="translate(177,307)"/>
<path d="M0 0 C0.99 0.33 1.98 0.66 3 1 C3 1.66 3 2.32 3 3 C4.32 3 5.64 3 7 3 C7 3.66 7 4.32 7 5 C4.03 5 1.06 5 -2 5 C-1.34 3.35 -0.68 1.7 0 0 Z " fill="#5235A3" transform="translate(220,355)"/>
<path d="M0 0 C3.3 0 6.6 0 10 0 C10.33 1.32 10.66 2.64 11 4 C11.99 4.33 12.98 4.66 14 5 C9.15311808 4.21824485 4.6233633 2.60155722 0 1 C0 0.67 0 0.34 0 0 Z " fill="#7B6DB5" transform="translate(196,352)"/>
<path d="M0 0 C0.144375 0.61875 0.28875 1.2375 0.4375 1.875 C0.93152225 4.03258322 0.93152225 4.03258322 2 6 C1.67 6.66 1.34 7.32 1 8 C1.66 8.33 2.32 8.66 3 9 C1.68 9 0.36 9 -1 9 C-2.35439668 6.29120665 -2.06501451 3.99066732 -2 1 C-1.34 0.67 -0.68 0.34 0 0 Z " fill="#4E4CA4" transform="translate(146,348)"/>
<path d="M0 0 C2.29903669 4.10542266 4.35523153 8.69099505 3.625 13.4375 C3.41875 13.953125 3.2125 14.46875 3 15 C3 14.01 3 13.02 3 12 C2.34 12 1.68 12 1 12 C0.63597631 10.56496445 0.28413409 9.12683494 -0.0625 7.6875 C-0.25972656 6.88699219 -0.45695312 6.08648437 -0.66015625 5.26171875 C-1 3 -1 3 0 0 Z " fill="#7FA2C2" transform="translate(368,199)"/>
<path d="M0 0 C2.97 0.33 5.94 0.66 9 1 C9 1.66 9 2.32 9 3 C10.98 3 12.96 3 15 3 C15 3.33 15 3.66 15 4 C4.27475338 4.56229448 4.27475338 4.56229448 0 1 C0 0.67 0 0.34 0 0 Z " fill="#7DB8BF" transform="translate(276,200)"/>
<path d="M0 0 C2 3 2 3 2 5 C-0.31 5 -2.62 5 -5 5 C-5.33 4.01 -5.66 3.02 -6 2 C-4.02 1.34 -2.04 0.68 0 0 Z " fill="#4FA0AC" transform="translate(290,198)"/>
<path d="M0 0 C0.99 0 1.98 0 3 0 C3.33 1.32 3.66 2.64 4 4 C3.34 4 2.68 4 2 4 C1.87625 4.804375 1.7525 5.60875 1.625 6.4375 C1.41875 7.283125 1.2125 8.12875 1 9 C0.01 9.495 0.01 9.495 -1 10 C-0.67 6.7 -0.34 3.4 0 0 Z " fill="#5EBEA8" transform="translate(196,189)"/>
<path d="M0 0 C2.45823172 3.68734758 3.01242616 6.69699971 4 11 C3.01 11.495 3.01 11.495 2 12 C-0.05257931 8.55166676 -1.0632763 6.68338409 -0.6875 2.625 C-0.460625 1.75875 -0.23375 0.8925 0 0 Z " fill="#6AA4B2" transform="translate(154,265)"/>
<path d="M0 0 C1.32 0 2.64 0 4 0 C2.95125002 2.62187494 2.35068687 3.79371361 -0.125 5.25 C-0.74375 5.4975 -1.3625 5.745 -2 6 C-2 6.66 -2 7.32 -2 8 C-2.66 8 -3.32 8 -4 8 C-4 7.01 -4 6.02 -4 5 C-3.34 5 -2.68 5 -2 5 C-2 4.34 -2 3.68 -2 3 C-1.34 2.67 -0.68 2.34 0 2 C0 1.34 0 0.68 0 0 Z " fill="#816BB9" transform="translate(336,323)"/>
<path d="M0 0 C0.99 0 1.98 0 3 0 C2.67 2.64 2.34 5.28 2 8 C1.34 8 0.68 8 0 8 C-0.33 9.32 -0.66 10.64 -1 12 C-2.3609623 9.2780754 -1.70366248 7.8168043 -1.0625 4.875 C-0.86785156 3.96492187 -0.67320312 3.05484375 -0.47265625 2.1171875 C-0.31667969 1.41851562 -0.16070312 0.71984375 0 0 Z " fill="#475DAC" transform="translate(347,248)"/>
<path d="M0 0 C3.3 0.33 6.6 0.66 10 1 C10.33 2.32 10.66 3.64 11 5 C10.37351563 4.7834375 9.74703125 4.566875 9.1015625 4.34375 C8.28429687 4.0653125 7.46703125 3.786875 6.625 3.5 C5.81289062 3.2215625 5.00078125 2.943125 4.1640625 2.65625 C2.05790758 1.90326695 2.05790758 1.90326695 0 2 C0 1.34 0 0.68 0 0 Z " fill="#6D66AB" transform="translate(185,347)"/>
<path d="M0 0 C2.33944736 0.28730055 4.6739143 0.61936779 7 1 C6.67 1.66 6.34 2.32 6 3 C5.34 2.67 4.68 2.34 4 2 C4.33 3.32 4.66 4.64 5 6 C4.01 6.33 3.02 6.66 2 7 C2 5.68 2 4.36 2 3 C1.01 2.34 0.02 1.68 -1 1 C-0.67 0.67 -0.34 0.34 0 0 Z " fill="#4E4DAB" transform="translate(206,328)"/>
<path d="M0 0 C0.66 0.33 1.32 0.66 2 1 C1.67 2.65 1.34 4.3 1 6 C0.01 6 -0.98 6 -2 6 C-2 5.34 -2 4.68 -2 4 C-3.32 3.67 -4.64 3.34 -6 3 C-4.03533587 1.93224776 -2.03144641 0.93446535 0 0 Z " fill="#7A67BA" transform="translate(298,321)"/>
<path d="M0 0 C-2.93828597 2.50298434 -5.17902761 3.46930939 -9 4 C-9.33 2.68 -9.66 1.36 -10 0 C-6.42355152 -1.2380014 -3.66305234 -0.74926071 0 0 Z " fill="#6A63B0" transform="translate(277,313)"/>
<path d="M0 0 C0.33 0 0.66 0 1 0 C0.64766839 5.4611399 0.64766839 5.4611399 0 8 C-2.0625 9.5 -2.0625 9.5 -4 10 C-3.4359146 6.05140217 -2.2568294 3.29120954 0 0 Z " fill="#5A53A7" transform="translate(332,287)"/>
<path d="M0 0 C1.32 0.33 2.64 0.66 4 1 C4.66 3.97 5.32 6.94 6 10 C3.25722422 6.80009492 1.3697164 3.99500618 0 0 Z " fill="#8599C2" transform="translate(196,290)"/>
<path d="M0 0 C0.66 0 1.32 0 2 0 C4.09350689 3.4019487 4.17942163 6.05272412 4 10 C3.34 8.68 2.68 7.36 2 6 C1.34 6 0.68 6 0 6 C-0.38218767 4.34385343 -0.71395102 2.67542976 -1 1 C-0.67 0.67 -0.34 0.34 0 0 Z " fill="#6B8EBA" transform="translate(369,211)"/>
<path d="M0 0 C0.33 0 0.66 0 1 0 C1.33 3.3 1.66 6.6 2 10 C2.66 10 3.32 10 4 10 C4.66 11.32 5.32 12.64 6 14 C4.125 13.875 4.125 13.875 2 13 C-0.07190488 8.64899976 -0.19055047 4.76376184 0 0 Z " fill="#98CFCB" transform="translate(222,199)"/>
<path d="M0 0 C2 3 2 3 1.6875 5 C1.460625 5.66 1.23375 6.32 1 7 C0.67 7.99 0.34 8.98 0 10 C-0.66 10 -1.32 10 -2 10 C-2.33 10.66 -2.66 11.32 -3 12 C-2.68950274 10.56206608 -2.3765224 9.1246682 -2.0625 7.6875 C-1.88847656 6.88699219 -1.71445313 6.08648437 -1.53515625 5.26171875 C-1 3 -1 3 0 0 Z " fill="#96D9C2" transform="translate(130,192)"/>
<path d="M0 0 C3.37991574 0.3557806 6.04288438 1.35715799 9 3 C4.99799622 4.60080151 1.95443764 3.29279692 -2 2 C-1.34 1.34 -0.68 0.68 0 0 Z " fill="#92D5C3" transform="translate(267,156)"/>
<path d="M0 0 C3 1 3 1 5 4 C5.125 7.1875 5.125 7.1875 5 10 C2.35534962 6.8745041 1.15585285 3.91211733 0 0 Z " fill="#76A0BA" transform="translate(135,292)"/>
<path d="M0 0 C0.66 0 1.32 0 2 0 C1.5205537 4.21912747 0.83374881 6.79663178 -2 10 C-2 6.09567131 -1.31626692 3.61973402 0 0 Z " fill="#7770B8" transform="translate(364,281)"/>
<path d="M0 0 C2.61527381 2.36620011 4.26440562 4.942048 6 8 C5.34 8.66 4.68 9.32 4 10 C2 8.375 2 8.375 0 6 C-0.25 2.75 -0.25 2.75 0 0 Z " fill="#7A93BF" transform="translate(222,278)"/>
<path d="M0 0 C4.875 2.625 4.875 2.625 6 6 C5.01 6.66 4.02 7.32 3 8 C2.01 7.67 1.02 7.34 0 7 C0.66 7 1.32 7 2 7 C1.34 4.69 0.68 2.38 0 0 Z " fill="#6788B8" transform="translate(216,271)"/>
<path d="M0 0 C0.99 0.495 0.99 0.495 2 1 C2.85486376 5.66289322 3.30042194 9.37627754 2 14 C1.67 14 1.34 14 1 14 C0.67 9.38 0.34 4.76 0 0 Z " fill="#7078B9" transform="translate(370,251)"/>
<path d="M0 0 C0.66 0 1.32 0 2 0 C3.38232443 1.62626404 4.71937515 3.2925002 6 5 C3.69 5.33 1.38 5.66 -1 6 C-1.33 5.34 -1.66 4.68 -2 4 C-1.0625 1.875 -1.0625 1.875 0 0 Z " fill="#51B4AC" transform="translate(339,154)"/>
<path d="M0 0 C-2.69007598 2.69007598 -5.36855815 3.02729236 -9 4 C-9.99 4.495 -9.99 4.495 -11 5 C-11.66 4.34 -12.32 3.68 -13 3 C-4.57142857 -0.42857143 -4.57142857 -0.42857143 0 0 Z " fill="#6EDDA9" transform="translate(216,118)"/>
<path d="M0 0 C1.41377341 2.63904371 2.37240135 5.07120629 3 8 C2.34 8 1.68 8 1 8 C0.34 8.66 -0.32 9.32 -1 10 C-2.46726798 6.18510326 -1.43336419 3.70988378 0 0 Z " fill="#6C7BB9" transform="translate(149,331)"/>
<path d="M0 0 C0.99 0 1.98 0 3 0 C3.33 0.99 3.66 1.98 4 3 C4.99 3.66 5.98 4.32 7 5 C4.69 5.33 2.38 5.66 0 6 C-1 3 -1 3 0 0 Z " fill="#6B62B7" transform="translate(260,313)"/>
<path d="M0 0 C1.65 0 3.3 0 5 0 C5.33 0.66 5.66 1.32 6 2 C3.25 3.625 3.25 3.625 0 5 C-2.375 4.1875 -2.375 4.1875 -4 3 C-2.35 3 -0.7 3 1 3 C0.67 2.01 0.34 1.02 0 0 Z " fill="#87A1BD" transform="translate(259,250)"/>
<path d="M0 0 C1.06775224 1.96466413 2.06553465 3.96855359 3 6 C2.67 6.66 2.34 7.32 2 8 C-0.31 6.02 -2.62 4.04 -5 2 C-2 0 -2 0 0 0 Z " fill="#88C9C1" transform="translate(309,156)"/>
<path d="M0 0 C0.66 0.33 1.32 0.66 2 1 C2 3.31 2 5.62 2 8 C0.68 7.67 -0.64 7.34 -2 7 C-1.67 6.01 -1.34 5.02 -1 4 C-0.65772583 2.66893378 -0.32248257 1.33599921 0 0 Z " fill="#71B7B8" transform="translate(150,248)"/>
<path d="M0 0 C0.99 0 1.98 0 3 0 C4.25 6.625 4.25 6.625 2 10 C1.34 6.7 0.68 3.4 0 0 Z " fill="#7EA8BE" transform="translate(341,206)"/>
<path d="M0 0 C1.875 0.25 1.875 0.25 4 1 C5.25 3.0625 5.25 3.0625 6 5 C3.69 5 1.38 5 -1 5 C-0.67 3.35 -0.34 1.7 0 0 Z " fill="#6BB1B3" transform="translate(347,162)"/>
<path d="M0 0 C0 0.99 0 1.98 0 3 C-3.63 2.67 -7.26 2.34 -11 2 C-11 1.67 -11 1.34 -11 1 C-7.26513121 0.4254048 -3.78706732 0 0 0 Z " fill="#826FBC" transform="translate(231,359)"/>
<path d="M0 0 C2.97 0.33 5.94 0.66 9 1 C8.67 1.66 8.34 2.32 8 3 C4.95613276 3.08226668 2.92824652 2.97608217 0 2 C0 1.34 0 0.68 0 0 Z " fill="#594EA1" transform="translate(233,334)"/>
<path d="M0 0 C-0.66 1.32 -1.32 2.64 -2 4 C-3.65 4 -5.3 4 -7 4 C-6.67 3.01 -6.34 2.02 -6 1 C-3 0 -3 0 0 0 Z " fill="#482E98" transform="translate(277,332)"/>
<path d="M0 0 C0.66 0 1.32 0 2 0 C2.6875 2.8125 2.6875 2.8125 3 6 C2.01 6.99 1.02 7.98 0 9 C0 6.03 0 3.06 0 0 Z " fill="#5F43AC" transform="translate(341,314)"/>
<path d="M0 0 C-1.32 1.65 -2.64 3.3 -4 5 C-4.66 3.35 -5.32 1.7 -6 0 C-3.50907189 -1.24546405 -2.58919267 -0.7767578 0 0 Z " fill="#7D6CBC" transform="translate(358,301)"/>
<path d="M0 0 C1.4606285 2.64738916 2 3.89448334 2 7 C2.66 7 3.32 7 4 7 C4.33 7.99 4.66 8.98 5 10 C4.34 10 3.68 10 3 10 C3 9.34 3 8.68 3 8 C2.0409375 7.566875 2.0409375 7.566875 1.0625 7.125 C-1 6 -1 6 -2 4 C-1.34 4 -0.68 4 0 4 C0 2.68 0 1.36 0 0 Z " fill="#7689BB" transform="translate(206,298)"/>
<path d="M0 0 C1.13643966 3.40931897 0.86747764 4.00335456 -0.4375 7.1875 C-0.86869141 8.26064453 -0.86869141 8.26064453 -1.30859375 9.35546875 C-1.53675781 9.89816406 -1.76492187 10.44085938 -2 11 C-2.33 11 -2.66 11 -3 11 C-3.125 4.25 -3.125 4.25 -2 2 C-1.34 2 -0.68 2 0 2 C0 1.34 0 0.68 0 0 Z " fill="#90D2BB" transform="translate(157,200)"/>
<path d="M0 0 C1.65 1.65 3.3 3.3 5 5 C3.02 5 1.04 5 -1 5 C-1.33 4.01 -1.66 3.02 -2 2 C-1.34 2 -0.68 2 0 2 C0 1.34 0 0.68 0 0 Z " fill="#83CAC0" transform="translate(332,143)"/>
<path d="M0 0 C2.97 0.33 5.94 0.66 9 1 C9 1.33 9 1.66 9 2 C6.03 2.66 3.06 3.32 0 4 C0 2.68 0 1.36 0 0 Z " fill="#94E1C2" transform="translate(272,114)"/>
<path d="M0 0 C0.66 0.33 1.32 0.66 2 1 C0.625 3.5 0.625 3.5 -1 6 C-1.66 6 -2.32 6 -3 6 C-3.66 4.68 -4.32 3.36 -5 2 C-2.625 0.9375 -2.625 0.9375 0 0 Z " fill="#4D2CA7" transform="translate(287,329)"/>
<path d="M0 0 C1.98 0.99 1.98 0.99 4 2 C4 3.32 4 4.64 4 6 C2.68 5.67 1.36 5.34 0 5 C0 3.35 0 1.7 0 0 Z " fill="#586EB1" transform="translate(184,312)"/>
<path d="M0 0 C1.5 1.375 1.5 1.375 3 3 C3 3.66 3 4.32 3 5 C1.35 5 -0.3 5 -2 5 C-2 3.68 -2 2.36 -2 1 C-1.34 0.67 -0.68 0.34 0 0 Z " fill="#4E43A8" transform="translate(265,312)"/>
<path d="M0 0 C0.66 0.33 1.32 0.66 2 1 C1.34 2.32 0.68 3.64 0 5 C0.66 5.66 1.32 6.32 2 7 C1.01 7 0.02 7 -1 7 C-1.66 6.34 -2.32 5.68 -3 5 C-3 4.01 -3 3.02 -3 2 C-2.01 1.34 -1.02 0.68 0 0 Z " fill="#93A9C4" transform="translate(270,255)"/>
<path d="M0 0 C1.485 0.99 1.485 0.99 3 2 C2.67 4.97 2.34 7.94 2 11 C1.67 11 1.34 11 1 11 C0.67 7.37 0.34 3.74 0 0 Z " fill="#7E9ABB" transform="translate(344,216)"/>
<path d="M0 0 C1.98 0.99 1.98 0.99 4 2 C4 3.65 4 5.3 4 7 C3.01 6.67 2.02 6.34 1 6 C0.67 4.02 0.34 2.04 0 0 Z " fill="#4890B5" transform="translate(340,195)"/>
<path d="M0 0 C0.99 0.33 1.98 0.66 3 1 C3.33 1.99 3.66 2.98 4 4 C4.99 5.485 4.99 5.485 6 7 C5.34 7.66 4.68 8.32 4 9 C0 2.25 0 2.25 0 0 Z " fill="#80B8C6" transform="translate(330,183)"/>
<path d="M0 0 C1.65 0 3.3 0 5 0 C5 0.66 5 1.32 5 2 C5.66 2.33 6.32 2.66 7 3 C4.36 3 1.72 3 -1 3 C-0.67 2.01 -0.34 1.02 0 0 Z " fill="#4E1AAC" transform="translate(276,354)"/>
<path d="M0 0 C-2.76223278 2.76223278 -5.20706617 2.57856291 -9 3 C-9 2.34 -9 1.68 -9 1 C-5.8035914 -0.06546953 -3.34252724 -0.07427838 0 0 Z " fill="#6059A5" transform="translate(179,351)"/>
<path d="M0 0 C2.31 0.33 4.62 0.66 7 1 C4.86437246 3.13562754 3.93453261 3.63318342 1 4 C0.34 3.34 -0.32 2.68 -1 2 C-0.67 1.34 -0.34 0.68 0 0 Z " fill="#613CA6" transform="translate(307,344)"/>
<path d="M0 0 C2 3 2 3 1.625 5.6875 C1.41875 6.450625 1.2125 7.21375 1 8 C0.34 8 -0.32 8 -1 8 C-1.125 2.25 -1.125 2.25 0 0 Z " fill="#5461A9" transform="translate(151,327)"/>
<path d="M0 0 C1.98 0.66 3.96 1.32 6 2 C6 2.99 6 3.98 6 5 C4.02 4.34 2.04 3.68 0 3 C0 2.01 0 1.02 0 0 Z " fill="#868AC0" transform="translate(203,324)"/>
<path d="M0 0 C0.99 0 1.98 0 3 0 C3.33 0.99 3.66 1.98 4 3 C3.01 3.33 2.02 3.66 1 4 C0.34 4.66 -0.32 5.32 -1 6 C-1.33 5.01 -1.66 4.02 -2 3 C-1.34 2.01 -0.68 1.02 0 0 Z " fill="#4957A7" transform="translate(194,321)"/>
<path d="M0 0 C0.66 0 1.32 0 2 0 C1.1875 1.9375 1.1875 1.9375 0 4 C-0.99 4.33 -1.98 4.66 -3 5 C-3 4.34 -3 3.68 -3 3 C-3.99 2.67 -4.98 2.34 -6 2 C-3.50907189 0.75453595 -2.58919267 1.2232422 0 2 C0 1.34 0 0.68 0 0 Z " fill="#6963AB" transform="translate(284,305)"/>
<path d="M0 0 C0 3.58534593 -1.02362045 5.07495826 -3 8 C-3.33 8 -3.66 8 -4 8 C-4 6.35 -4 4.7 -4 3 C-3.34 3 -2.68 3 -2 3 C-2 2.34 -2 1.68 -2 1 C-1.34 0.67 -0.68 0.34 0 0 Z " fill="#7574B2" transform="translate(296,292)"/>
<path d="M0 0 C0.66 0.33 1.32 0.66 2 1 C1.01 2.32 0.02 3.64 -1 5 C-0.67 5.66 -0.34 6.32 0 7 C-0.99 7.33 -1.98 7.66 -3 8 C-3.1875 5.125 -3.1875 5.125 -3 2 C-2.01 1.34 -1.02 0.68 0 0 Z " fill="#4741A0" transform="translate(336,285)"/>
<path d="M0 0 C0.66 0.33 1.32 0.66 2 1 C1.34 1.61875 0.68 2.2375 0 2.875 C-2.2284549 4.75637427 -2.2284549 4.75637427 -2 7 C-3.32 6.34 -4.64 5.68 -6 5 C-4.02 3.35 -2.04 1.7 0 0 Z " fill="#8DA5C4" transform="translate(282,246)"/>
<path d="M0 0 C2.50037734 2.17424117 3.43628586 3.73045798 4 7 C2.68 6.67 1.36 6.34 0 6 C-0.38218767 4.34385343 -0.71395102 2.67542976 -1 1 C-0.67 0.67 -0.34 0.34 0 0 Z " fill="#53A4AA" transform="translate(276,194)"/>
<path d="M0 0 C0.33 0.66 0.66 1.32 1 2 C0.06421005 4.35981813 -0.93347808 6.69631264 -2 9 C-2.66 9 -3.32 9 -4 9 C-2.94124926 5.59687262 -1.99097846 2.98646769 0 0 Z " fill="#9CE0C9" transform="translate(139,174)"/>
<path d="M0 0 C0 0.66 0 1.32 0 2 C-2.97 1.67 -5.94 1.34 -9 1 C-4.82091936 -1.08954032 -4.19589427 -1.16552619 0 0 Z " fill="#7BCDB6" transform="translate(289,145)"/>
<path d="M0 0 C1.98 0 3.96 0 6 0 C5.67 1.32 5.34 2.64 5 4 C4.67 3.34 4.34 2.68 4 2 C2.35 2.33 0.7 2.66 -1 3 C-0.67 2.01 -0.34 1.02 0 0 Z " fill="#69DEA9" transform="translate(170,140)"/>
<path d="M0 0 C1.4540625 0.0309375 1.4540625 0.0309375 2.9375 0.0625 C1.9375 2.0625 1.9375 2.0625 0 2.8125 C-1.0209375 2.93625 -1.0209375 2.93625 -2.0625 3.0625 C-2.7225 2.4025 -3.3825 1.7425 -4.0625 1.0625 C-3.0625 0.0625 -3.0625 0.0625 0 0 Z M-3.0625 3.0625 C-2.7325 3.7225 -2.4025 4.3825 -2.0625 5.0625 C-3.0525 4.7325 -4.0425 4.4025 -5.0625 4.0625 C-4.4025 3.7325 -3.7425 3.4025 -3.0625 3.0625 Z " fill="#83E1B4" transform="translate(186.0625,128.9375)"/>
</svg>
